<svg id="svg" version="1.1" xmlns="http://www.w3.org/2000/svg" xmlns:xlink="http://www.w3.org/1999/xlink" width="400" height="400" viewBox="0, 0, 400,400"><g id="svgg"><path id="path0" d="M256.109 109.600 C 256.109 110.590,256.187 110.995,256.282 110.500 C 256.378 110.005,256.378 109.195,256.282 108.700 C 256.187 108.205,256.109 108.610,256.109 109.600 M243.775 112.100 L 242.600 113.400 243.900 112.225 C 244.615 111.579,245.200 110.994,245.200 110.925 C 245.200 110.616,244.870 110.888,243.775 112.100 M185.260 115.851 C 184.743 116.402,184.390 116.924,184.477 117.010 C 184.669 117.203,186.800 115.408,186.800 115.053 C 186.800 114.549,186.181 114.869,185.260 115.851 M172.655 128.655 C 172.068 129.241,171.670 129.803,171.770 129.903 C 171.870 130.003,172.432 129.605,173.018 129.018 C 173.605 128.432,174.003 127.870,173.903 127.770 C 173.803 127.670,173.241 128.068,172.655 128.655 M223.489 132.805 C 222.724 133.698,222.635 134.000,223.136 134.000 C 223.320 134.000,223.677 133.550,223.927 133.000 C 224.479 131.790,224.391 131.751,223.489 132.805 M168.378 133.061 C 168.036 133.153,167.440 133.762,167.055 134.414 C 166.670 135.066,166.193 135.600,165.995 135.600 C 165.798 135.600,164.271 136.943,162.603 138.584 C 160.934 140.226,159.486 141.576,159.385 141.584 C 158.673 141.644,158.728 141.707,159.761 142.016 C 161.187 142.443,162.051 142.021,162.802 140.531 C 163.116 139.909,164.565 138.230,166.023 136.800 C 168.042 134.820,169.910 132.410,169.087 132.846 C 169.039 132.872,168.720 132.968,168.378 133.061 M208.162 139.800 C 206.861 141.006,206.971 141.035,208.975 140.013 C 209.824 139.580,210.700 139.338,210.921 139.475 C 211.149 139.616,211.200 139.524,211.038 139.262 C 210.568 138.501,209.310 138.736,208.162 139.800 M216.893 139.600 C 216.618 140.040,216.112 140.400,215.768 140.400 C 215.424 140.400,214.871 140.672,214.539 141.004 C 214.207 141.336,213.815 141.533,213.668 141.443 C 213.520 141.352,213.360 141.845,213.311 142.539 C 213.186 144.313,206.676 150.736,206.471 149.288 C 206.382 148.661,205.790 148.117,204.571 147.544 C 203.597 147.086,202.800 146.592,202.800 146.445 C 202.800 146.177,203.959 144.378,204.377 143.997 C 204.500 143.885,205.037 143.255,205.571 142.597 C 206.105 141.938,205.565 142.407,204.371 143.639 C 200.964 147.152,198.953 150.142,200.738 149.038 C 200.925 148.923,201.371 149.887,201.730 151.179 L 202.384 153.530 203.739 153.114 C 204.485 152.885,205.828 151.956,206.725 151.049 C 207.621 150.142,209.715 148.047,211.377 146.394 C 213.040 144.740,214.400 143.165,214.400 142.894 C 214.400 142.622,214.760 142.400,215.200 142.400 C 215.640 142.400,216.000 142.265,216.000 142.100 C 216.001 141.935,216.451 141.277,217.000 140.638 C 217.550 139.999,218.000 139.324,218.000 139.138 C 218.000 138.533,217.404 138.781,216.893 139.600 M157.285 144.174 C 156.901 145.017,156.927 145.126,157.467 144.919 C 158.014 144.709,158.006 144.819,157.404 145.738 C 156.551 147.040,155.329 147.254,156.010 145.982 C 156.414 145.226,156.385 145.203,155.624 145.678 C 155.171 145.961,154.800 146.433,154.800 146.728 C 154.800 147.022,154.076 147.958,153.192 148.808 C 152.308 149.657,151.633 150.502,151.692 150.684 C 151.751 150.866,151.395 151.451,150.900 151.983 C 150.405 152.515,150.000 153.243,150.000 153.600 C 150.000 153.957,149.640 154.636,149.200 155.108 C 148.760 155.580,148.400 156.244,148.400 156.583 C 148.400 156.922,148.250 157.200,148.068 157.200 C 147.885 157.200,147.525 157.650,147.268 158.200 C 147.010 158.750,146.575 159.679,146.300 160.265 C 145.900 161.118,145.900 161.364,146.300 161.499 C 147.133 161.778,146.859 162.341,146.000 162.116 C 145.077 161.874,144.795 163.770,145.700 164.135 C 145.975 164.246,145.795 164.351,145.300 164.368 C 144.574 164.394,144.400 164.632,144.400 165.600 C 144.400 166.260,144.220 166.800,144.000 166.800 C 143.780 166.800,143.600 167.621,143.600 168.624 C 143.600 169.737,143.444 170.351,143.200 170.200 C 142.957 170.050,142.800 170.636,142.800 171.696 C 142.800 172.655,142.575 173.682,142.300 173.979 C 141.894 174.416,141.912 174.458,142.400 174.200 C 142.888 173.942,142.906 173.984,142.500 174.421 C 141.887 175.082,141.775 192.815,142.381 193.421 C 142.590 193.630,142.807 194.476,142.863 195.301 C 142.918 196.125,143.107 196.800,143.282 196.800 C 143.457 196.800,143.600 196.991,143.600 197.224 C 143.600 197.457,143.375 197.520,143.100 197.365 C 142.700 197.139,142.700 197.190,143.100 197.621 C 143.375 197.918,143.600 198.664,143.600 199.280 C 143.600 199.896,143.780 200.400,144.000 200.400 C 144.220 200.400,144.400 200.940,144.400 201.600 C 144.400 202.260,144.580 202.800,144.800 202.800 C 145.020 202.800,145.200 203.162,145.200 203.605 C 145.200 204.048,145.368 204.723,145.574 205.105 C 145.779 205.487,146.183 206.385,146.471 207.100 C 146.760 207.815,147.131 208.400,147.298 208.400 C 147.464 208.400,147.600 208.636,147.600 208.925 C 147.600 209.213,147.960 209.836,148.400 210.308 C 148.840 210.780,149.200 211.624,149.200 212.183 C 149.200 213.074,149.548 213.375,150.450 213.264 C 150.588 213.247,150.700 213.683,150.700 214.233 C 150.700 215.478,151.074 215.886,151.668 215.292 C 151.984 214.976,152.353 214.961,152.876 215.241 C 153.291 215.463,154.028 215.546,154.515 215.426 C 155.002 215.306,155.175 215.311,154.900 215.437 C 154.625 215.563,154.400 215.922,154.400 216.233 C 154.400 216.918,153.730 216.990,153.510 216.329 C 153.316 215.749,152.400 216.258,152.400 216.945 C 152.400 217.702,155.019 220.400,155.754 220.400 C 156.478 220.400,156.522 220.121,156.408 216.285 C 156.355 214.502,156.511 213.343,156.863 212.908 C 157.243 212.440,157.254 212.334,156.900 212.547 C 156.625 212.712,156.400 212.667,156.400 212.447 C 156.400 212.227,156.580 211.936,156.800 211.800 C 157.020 211.664,157.200 211.193,157.200 210.753 C 157.200 210.313,157.020 210.064,156.800 210.200 C 156.580 210.336,156.400 210.257,156.400 210.024 C 156.400 209.791,156.659 209.600,156.976 209.600 C 157.293 209.600,157.681 209.392,157.838 209.138 C 158.021 208.842,157.947 208.785,157.632 208.980 C 157.275 209.201,157.286 209.050,157.670 208.430 C 158.118 207.707,158.108 207.517,157.600 207.194 C 157.188 206.932,157.159 206.810,157.509 206.806 C 158.360 206.796,159.007 204.932,158.410 204.212 C 157.981 203.695,158.034 203.600,158.751 203.600 C 159.676 203.600,159.903 202.990,159.100 202.664 C 158.720 202.510,158.739 202.364,159.181 202.057 C 159.500 201.835,159.933 201.759,160.143 201.888 C 160.352 202.018,160.404 201.930,160.258 201.694 C 160.112 201.458,160.264 200.993,160.596 200.661 C 161.400 199.857,161.358 199.088,160.400 197.106 C 159.960 196.195,159.600 195.214,159.600 194.925 C 159.600 194.636,159.441 194.400,159.247 194.400 C 159.053 194.400,158.868 192.825,158.836 190.900 C 158.804 188.975,158.603 187.340,158.389 187.267 C 157.868 187.088,157.879 180.000,158.400 180.000 C 158.625 180.000,158.800 178.875,158.800 177.424 C 158.800 176.007,158.980 174.736,159.200 174.600 C 159.420 174.464,159.600 173.763,159.600 173.043 C 159.600 172.323,159.724 171.610,159.875 171.459 C 160.398 170.935,160.278 169.399,159.680 168.962 C 159.186 168.600,159.175 168.463,159.616 168.190 C 159.941 167.989,160.215 168.044,160.310 168.329 C 160.396 168.588,160.652 168.800,160.879 168.800 C 161.106 168.800,160.985 168.331,160.609 167.757 C 160.074 166.942,160.032 166.615,160.413 166.257 C 160.779 165.913,160.945 165.924,161.083 166.300 C 161.184 166.575,161.440 166.800,161.651 166.800 C 162.085 166.800,161.963 165.521,161.495 165.173 C 160.911 164.739,161.662 162.338,162.305 162.585 C 162.633 162.711,163.183 162.586,163.527 162.307 C 164.017 161.911,164.088 161.909,163.853 162.300 C 163.688 162.575,163.723 162.800,163.931 162.800 C 164.139 162.800,164.385 162.286,164.477 161.658 C 164.615 160.714,164.519 160.548,163.922 160.704 C 162.965 160.955,163.004 160.301,164.000 159.400 C 164.440 159.002,164.800 158.524,164.800 158.338 C 164.800 157.808,164.116 157.941,163.457 158.600 C 163.127 158.930,162.754 159.200,162.629 159.200 C 162.161 159.200,162.421 158.081,163.000 157.600 C 163.645 157.064,163.847 155.800,163.226 156.184 C 163.020 156.311,162.398 155.962,161.844 155.408 C 160.875 154.439,160.869 154.400,161.674 154.400 C 162.135 154.400,162.729 154.697,162.995 155.061 C 163.261 155.425,163.686 155.594,163.939 155.438 C 164.653 154.996,164.483 154.400,163.643 154.400 C 163.226 154.400,162.777 154.118,162.645 153.772 C 162.492 153.374,162.131 153.231,161.656 153.382 C 161.077 153.566,160.907 153.415,160.903 152.710 C 160.892 151.115,160.809 150.800,160.400 150.800 C 160.180 150.800,160.000 151.173,160.000 151.629 C 160.000 152.084,159.730 152.727,159.400 153.057 C 158.867 153.590,158.800 153.590,158.800 153.052 C 158.800 152.719,158.980 152.336,159.200 152.200 C 159.420 152.064,159.600 151.603,159.600 151.176 C 159.600 150.749,159.791 150.400,160.024 150.400 C 160.257 150.400,160.336 150.220,160.200 150.000 C 160.064 149.780,160.143 149.600,160.376 149.600 C 160.609 149.600,160.800 149.228,160.800 148.774 C 160.800 147.524,160.016 146.308,159.369 146.556 C 158.335 146.953,158.808 146.214,160.115 145.392 C 161.703 144.393,161.785 143.444,160.300 143.273 C 159.514 143.183,159.200 143.326,159.200 143.773 C 159.200 144.118,159.410 144.400,159.667 144.400 C 159.923 144.400,160.013 144.521,159.865 144.668 C 159.718 144.816,159.178 144.543,158.666 144.062 L 157.734 143.187 157.285 144.174 M159.200 149.400 C 159.200 149.730,158.930 150.000,158.600 150.000 C 157.975 150.000,157.806 149.527,158.267 149.067 C 158.727 148.606,159.200 148.775,159.200 149.400 M207.700 161.423 C 207.111 162.063,207.062 162.400,207.557 162.400 C 207.898 162.400,208.537 161.196,208.309 160.983 C 208.249 160.927,207.975 161.125,207.700 161.423 M217.055 167.400 C 216.929 167.730,216.999 168.000,217.213 168.000 C 217.426 168.000,217.600 167.809,217.600 167.576 C 217.600 167.343,217.768 167.256,217.972 167.383 C 218.177 167.509,218.458 167.430,218.596 167.207 C 218.734 166.983,218.496 166.800,218.066 166.800 C 217.637 166.800,217.182 167.070,217.055 167.400 M159.600 170.824 C 159.600 171.031,159.330 171.200,159.000 171.200 C 158.381 171.200,158.205 170.728,158.656 170.278 C 158.975 169.958,159.600 170.319,159.600 170.824 M200.600 171.200 C 200.464 171.420,200.003 171.600,199.576 171.600 C 199.149 171.600,198.800 171.788,198.800 172.017 C 198.800 172.995,197.343 174.055,196.837 173.444 C 196.452 172.980,196.499 172.784,197.074 172.462 C 197.470 172.241,197.648 171.914,197.469 171.736 C 197.291 171.558,196.826 171.836,196.435 172.353 C 195.829 173.157,195.598 173.227,194.862 172.833 C 194.299 172.532,194.000 172.515,194.000 172.786 C 194.000 173.014,193.460 173.200,192.800 173.200 C 192.140 173.200,191.600 173.380,191.600 173.600 C 191.600 173.820,191.060 174.000,190.400 174.000 C 189.740 174.000,189.200 174.180,189.200 174.400 C 189.200 174.620,188.855 174.800,188.433 174.800 C 188.012 174.800,187.607 174.935,187.533 175.100 C 187.460 175.265,186.545 175.833,185.500 176.363 C 184.455 176.892,183.600 177.477,183.600 177.663 C 183.600 177.848,183.359 178.000,183.065 178.000 C 182.771 178.000,181.736 178.716,180.765 179.592 C 177.866 182.206,177.678 182.344,177.400 182.067 C 177.253 181.920,177.170 181.980,177.214 182.200 C 177.404 183.140,177.151 183.600,176.446 183.600 C 175.974 183.600,175.438 184.134,175.015 185.024 C 174.644 185.807,174.083 186.547,173.770 186.667 C 173.110 186.920,173.010 187.839,173.610 188.137 C 173.835 188.249,173.792 188.294,173.514 188.238 C 172.968 188.128,171.600 189.647,171.600 190.363 C 171.600 190.603,171.463 190.800,171.295 190.800 C 171.127 190.800,170.805 191.205,170.580 191.700 C 170.355 192.195,169.991 192.568,169.770 192.528 C 169.550 192.489,169.330 192.939,169.281 193.528 C 169.233 194.118,169.015 194.660,168.797 194.733 C 168.578 194.807,168.400 195.132,168.400 195.457 C 168.400 195.801,168.208 195.928,167.938 195.762 C 167.664 195.593,167.585 195.651,167.742 195.906 C 167.888 196.142,167.736 196.607,167.404 196.939 C 167.072 197.271,166.800 198.006,166.800 198.571 C 166.800 199.137,166.601 199.600,166.357 199.600 C 166.114 199.600,166.009 199.848,166.126 200.150 C 166.242 200.453,166.081 201.193,165.768 201.796 C 165.456 202.398,165.200 203.231,165.200 203.646 C 165.200 204.061,165.020 204.400,164.800 204.400 C 164.580 204.400,164.400 205.019,164.400 205.776 C 164.400 206.533,164.220 207.264,164.000 207.400 C 163.780 207.536,163.600 208.346,163.600 209.200 C 163.600 210.054,163.443 210.850,163.251 210.968 C 162.538 211.409,162.711 217.828,163.453 218.439 C 164.076 218.951,164.114 218.893,163.891 217.766 C 163.741 217.008,163.875 216.091,164.239 215.389 C 164.565 214.761,164.979 213.173,165.159 211.860 C 165.571 208.846,166.918 207.419,167.124 209.779 C 167.197 210.609,167.463 211.200,167.765 211.200 C 168.049 211.200,168.846 211.740,169.537 212.400 C 170.228 213.060,171.026 213.600,171.311 213.600 C 171.596 213.600,171.854 213.915,171.884 214.300 C 172.059 216.532,173.600 218.238,173.600 216.200 C 173.600 215.141,174.177 214.842,174.516 215.725 C 174.627 216.014,174.620 216.764,174.500 217.391 C 174.325 218.302,174.405 218.484,174.897 218.295 C 175.576 218.034,176.000 219.416,176.000 221.888 C 176.000 223.440,174.902 225.600,174.114 225.600 C 173.504 225.600,173.422 226.274,174.008 226.469 C 174.461 226.620,173.614 228.792,173.100 228.797 C 172.935 228.799,172.800 229.160,172.800 229.600 C 172.800 230.040,173.064 230.400,173.387 230.400 C 173.746 230.400,173.885 230.166,173.744 229.799 C 173.609 229.448,173.905 228.872,174.457 228.412 C 175.690 227.385,176.326 227.376,175.400 228.400 C 175.002 228.840,174.841 229.200,175.042 229.200 C 175.710 229.200,176.477 227.575,176.051 227.062 C 175.530 226.434,177.367 224.625,178.201 224.945 C 178.552 225.080,178.800 224.950,178.800 224.630 C 178.800 224.331,178.530 223.982,178.200 223.855 C 177.732 223.676,177.600 222.877,177.600 220.213 C 177.600 217.446,177.714 216.800,178.200 216.800 C 179.031 216.800,178.955 216.100,178.100 215.872 C 177.516 215.716,177.554 215.636,178.330 215.388 C 179.087 215.146,179.215 214.897,179.018 214.046 C 178.836 213.260,178.877 213.149,179.182 213.600 C 179.479 214.039,179.589 213.577,179.594 211.876 C 179.598 210.223,179.733 209.635,180.062 209.838 C 180.318 209.996,180.416 209.950,180.282 209.733 C 180.150 209.518,180.302 208.840,180.620 208.226 C 180.939 207.611,181.204 206.814,181.209 206.454 C 181.214 206.094,181.570 205.350,182.000 204.800 C 182.430 204.250,182.786 203.575,182.791 203.300 C 182.796 203.025,182.980 202.800,183.200 202.800 C 183.420 202.800,183.600 202.480,183.600 202.088 C 183.600 201.697,183.960 201.117,184.400 200.800 C 184.840 200.483,185.200 200.016,185.200 199.763 C 185.200 199.510,186.276 198.155,187.591 196.752 C 189.189 195.046,189.911 193.974,189.770 193.518 C 189.619 193.033,190.054 192.526,191.279 191.759 C 192.225 191.166,193.061 190.525,193.135 190.334 C 193.210 190.144,194.093 189.613,195.097 189.156 C 196.463 188.533,196.782 188.234,196.362 187.968 C 195.766 187.590,196.083 187.472,197.418 187.574 C 197.868 187.608,198.677 187.254,199.215 186.787 C 199.906 186.188,200.517 186.003,201.297 186.159 C 202.102 186.320,202.400 186.221,202.400 185.790 C 202.400 185.466,202.580 185.200,202.800 185.200 C 203.020 185.200,203.200 185.470,203.200 185.800 C 203.200 186.570,203.846 186.579,204.140 185.813 C 204.264 185.490,204.958 184.945,205.683 184.602 C 208.483 183.277,208.911 182.893,209.011 181.616 C 209.066 180.927,209.438 180.000,209.839 179.557 C 210.309 179.038,210.419 178.653,210.149 178.476 C 209.919 178.324,209.727 177.660,209.722 177.000 C 209.699 173.685,209.054 171.865,208.019 172.194 C 207.095 172.487,205.077 171.722,205.400 171.201 C 205.548 170.961,205.065 170.800,204.200 170.800 C 203.337 170.800,202.853 170.961,203.000 171.200 C 203.136 171.420,202.877 171.600,202.424 171.600 C 201.958 171.600,201.600 171.861,201.600 172.200 C 201.600 172.530,201.420 172.800,201.200 172.800 C 200.648 172.800,200.698 171.862,201.280 171.280 C 201.626 170.934,201.632 170.800,201.304 170.800 C 201.053 170.800,200.736 170.980,200.600 171.200 M211.178 172.100 C 211.138 172.280,211.127 177.377,211.164 178.300 C 211.188 178.913,211.449 179.200,211.980 179.200 C 212.409 179.200,212.915 179.477,213.105 179.816 C 213.314 180.189,213.716 180.330,214.123 180.174 C 214.944 179.859,214.620 179.200,213.645 179.200 C 213.053 179.200,212.935 178.832,212.925 176.959 C 212.917 175.493,212.720 174.593,212.357 174.359 C 211.883 174.054,211.886 173.945,212.374 173.630 C 212.850 173.324,212.859 173.153,212.425 172.630 C 211.977 172.091,211.248 171.781,211.178 172.100 M217.783 178.188 C 217.839 179.842,218.170 180.767,218.564 180.367 C 218.835 180.091,218.319 176.400,218.009 176.400 C 217.851 176.400,217.749 177.205,217.783 178.188 M218.406 181.476 C 218.403 181.958,218.580 182.464,218.800 182.600 C 219.309 182.915,219.309 181.988,218.800 181.200 C 218.485 180.712,218.411 180.764,218.406 181.476 M218.800 185.575 C 218.800 185.781,219.148 185.924,219.572 185.892 C 219.997 185.860,220.256 185.691,220.149 185.517 C 219.875 185.073,218.800 185.120,218.800 185.575 M238.000 192.200 C 238.000 192.530,238.180 192.800,238.400 192.800 C 238.620 192.800,238.800 192.530,238.800 192.200 C 238.800 191.870,238.620 191.600,238.400 191.600 C 238.180 191.600,238.000 191.870,238.000 192.200 M240.400 192.186 C 240.400 192.876,238.957 193.744,238.392 193.395 C 238.176 193.262,238.000 193.513,238.000 193.953 C 238.000 194.393,237.838 194.853,237.640 194.975 C 237.442 195.098,237.318 195.759,237.366 196.444 C 237.413 197.130,237.250 197.895,237.004 198.145 C 236.527 198.629,235.952 199.841,235.767 200.752 C 235.706 201.056,235.463 201.497,235.228 201.732 C 234.992 201.968,234.800 202.484,234.800 202.880 C 234.800 203.276,234.650 203.600,234.468 203.600 C 234.285 203.600,233.880 204.095,233.568 204.700 C 233.255 205.305,232.773 206.040,232.496 206.332 C 232.219 206.625,232.112 207.058,232.258 207.294 C 232.406 207.533,232.338 207.609,232.104 207.464 C 231.873 207.321,231.581 207.474,231.454 207.802 C 231.328 208.131,230.949 208.400,230.613 208.400 C 230.276 208.400,229.998 208.625,229.996 208.900 C 229.994 209.175,229.066 210.210,227.935 211.200 C 226.804 212.190,225.282 213.585,224.553 214.300 C 223.823 215.015,223.063 215.600,222.862 215.600 C 222.662 215.600,222.251 215.905,221.949 216.277 C 221.481 216.853,221.483 216.903,221.962 216.615 C 222.343 216.385,222.432 216.425,222.238 216.738 C 222.081 216.992,221.683 217.200,221.353 217.200 C 221.023 217.200,220.864 217.380,221.000 217.600 C 221.136 217.820,220.877 218.000,220.424 218.000 C 219.971 218.000,219.600 218.180,219.600 218.400 C 219.600 218.620,218.824 218.800,217.875 218.800 C 216.795 218.800,215.861 219.061,215.375 219.500 C 214.949 219.885,213.970 220.261,213.200 220.335 C 212.430 220.410,211.740 220.635,211.667 220.835 C 211.593 221.036,211.358 221.200,211.143 221.200 C 210.928 221.200,210.881 220.992,211.038 220.738 C 211.211 220.459,211.148 220.385,210.879 220.551 C 210.635 220.702,210.530 221.074,210.646 221.377 C 210.917 222.083,209.531 222.536,208.077 222.217 C 207.469 222.083,206.105 221.957,205.046 221.936 C 203.812 221.911,203.314 221.774,203.660 221.555 C 204.110 221.269,204.110 221.211,203.663 221.206 C 203.367 221.203,203.031 221.560,202.916 222.000 C 202.801 222.440,202.458 222.800,202.153 222.800 C 201.849 222.800,201.600 223.070,201.600 223.400 C 201.600 223.730,201.420 224.000,201.200 224.000 C 200.980 224.000,200.800 223.742,200.800 223.427 C 200.800 223.050,200.393 222.865,199.614 222.887 C 198.961 222.906,198.183 222.718,197.883 222.469 C 197.450 222.110,197.345 222.200,197.369 222.908 C 197.394 223.630,197.152 223.824,196.100 223.925 C 194.679 224.062,194.475 224.433,195.400 225.200 C 196.650 226.238,195.865 227.200,193.767 227.200 C 193.235 227.200,192.800 227.380,192.800 227.600 C 192.800 227.820,192.395 228.006,191.900 228.013 C 191.037 228.025,191.031 228.049,191.750 228.594 C 192.168 228.910,192.399 229.427,192.271 229.760 C 192.115 230.166,192.227 230.288,192.618 230.138 C 192.936 230.016,193.096 229.755,192.974 229.558 C 192.665 229.058,192.933 229.108,194.254 229.798 C 195.023 230.199,195.170 230.396,194.700 230.398 C 193.644 230.401,193.860 231.150,195.000 231.436 C 195.938 231.671,196.330 232.749,196.005 234.200 C 195.956 234.420,195.912 235.005,195.908 235.500 C 195.904 235.995,195.653 236.400,195.350 236.400 C 195.048 236.400,194.800 236.190,194.800 235.933 C 194.800 235.677,194.684 235.582,194.543 235.724 C 194.402 235.865,194.512 236.253,194.788 236.586 C 195.200 237.082,195.167 237.238,194.605 237.454 C 194.203 237.608,193.773 237.485,193.566 237.158 C 193.298 236.736,193.211 236.814,193.206 237.476 C 193.203 237.958,193.350 238.446,193.534 238.559 C 193.807 238.728,193.847 239.628,193.633 240.780 C 193.615 240.879,193.384 240.744,193.120 240.480 C 192.400 239.760,191.915 239.902,192.185 240.753 C 192.336 241.228,192.198 241.592,191.812 241.740 C 191.475 241.869,191.200 242.191,191.200 242.456 C 191.200 242.721,190.892 243.277,190.516 243.693 C 189.925 244.346,189.911 244.501,190.416 244.832 C 190.917 245.160,190.903 245.272,190.317 245.618 C 189.940 245.840,189.735 246.286,189.859 246.611 C 190.001 246.979,189.845 247.200,189.443 247.200 C 189.089 247.200,188.800 247.380,188.800 247.600 C 188.800 247.820,188.993 248.000,189.229 248.000 C 189.875 248.000,190.800 246.943,190.800 246.205 C 190.800 245.814,190.985 245.667,191.262 245.838 C 191.548 246.015,191.615 245.948,191.438 245.662 C 191.269 245.388,191.407 245.200,191.776 245.200 C 192.119 245.200,192.400 244.922,192.400 244.582 C 192.400 243.832,193.803 242.405,195.300 241.632 C 195.905 241.320,196.400 240.915,196.400 240.732 C 196.400 240.550,196.760 240.400,197.200 240.400 C 197.640 240.400,198.000 240.220,198.000 240.000 C 198.000 239.780,198.439 239.600,198.976 239.600 C 199.513 239.600,200.064 239.420,200.200 239.200 C 200.336 238.980,201.146 238.800,202.000 238.800 C 202.854 238.800,203.664 238.620,203.800 238.400 C 203.937 238.179,205.737 238.000,207.824 238.000 C 210.075 238.000,211.600 237.838,211.600 237.600 C 211.600 237.378,212.656 237.200,213.967 237.200 C 215.268 237.200,216.393 237.022,216.467 236.803 C 216.540 236.585,217.095 236.366,217.700 236.316 C 218.305 236.266,218.800 236.085,218.800 235.913 C 218.800 235.741,219.214 235.600,219.720 235.600 C 220.226 235.600,220.882 235.375,221.179 235.100 C 221.610 234.700,221.661 234.700,221.435 235.100 C 221.280 235.375,221.331 235.600,221.549 235.600 C 221.768 235.600,222.060 235.240,222.200 234.800 C 222.359 234.299,222.805 234.000,223.394 234.000 C 224.610 234.000,225.600 233.614,225.600 233.140 C 225.600 232.383,227.101 231.117,227.409 231.615 C 227.570 231.876,227.460 232.240,227.163 232.423 C 226.866 232.606,226.732 232.866,226.866 232.999 C 227.000 233.133,227.465 232.789,227.901 232.235 C 228.337 231.681,228.792 231.325,228.912 231.446 C 229.032 231.566,229.566 231.379,230.097 231.031 C 230.629 230.682,231.186 230.486,231.335 230.595 C 231.485 230.704,231.425 230.579,231.203 230.317 C 230.981 230.054,230.803 229.651,230.806 229.420 C 230.809 229.189,230.970 229.249,231.162 229.553 C 231.586 230.221,234.000 229.346,234.000 228.524 C 234.000 228.260,234.495 227.808,235.100 227.519 C 235.843 227.164,236.242 226.630,236.329 225.873 C 236.404 225.219,236.654 224.825,236.929 224.926 C 237.188 225.022,237.340 225.347,237.267 225.650 C 237.193 225.952,237.283 226.050,237.467 225.867 C 237.650 225.683,237.800 225.409,237.800 225.257 C 237.800 225.105,238.029 224.715,238.308 224.390 C 240.135 222.267,240.799 221.340,240.800 220.914 C 240.800 220.047,242.366 219.475,243.102 220.072 C 243.645 220.512,243.699 220.510,243.426 220.055 C 243.224 219.720,243.310 219.376,243.649 219.161 C 244.048 218.909,244.062 218.811,243.700 218.806 C 243.019 218.798,243.067 217.276,243.771 216.571 C 244.538 215.805,245.200 215.849,245.200 216.667 C 245.200 217.033,245.325 217.208,245.478 217.055 C 245.888 216.646,245.987 215.561,245.593 215.805 C 244.302 216.602,244.987 213.901,246.500 212.225 C 246.885 211.798,247.200 211.157,247.200 210.800 C 247.200 210.443,247.560 209.764,248.000 209.292 C 248.957 208.265,248.998 208.000,248.200 208.000 C 247.870 208.000,247.600 207.820,247.600 207.600 C 247.600 207.380,247.972 207.200,248.427 207.200 C 249.072 207.200,249.198 207.024,249.000 206.400 C 248.820 205.832,248.928 205.600,249.373 205.600 C 249.988 205.600,250.289 204.832,249.700 204.767 C 249.535 204.749,248.905 204.653,248.300 204.553 C 247.499 204.422,247.200 204.540,247.200 204.986 C 247.200 205.324,247.380 205.600,247.600 205.600 C 247.820 205.600,248.000 205.780,248.000 206.000 C 248.000 206.220,247.640 206.400,247.200 206.400 C 246.760 206.400,246.400 206.580,246.400 206.800 C 246.400 207.020,246.130 207.200,245.800 207.200 C 245.470 207.200,245.200 207.020,245.200 206.800 C 245.200 206.580,245.450 206.400,245.755 206.400 C 246.363 206.400,246.907 203.934,246.374 203.592 C 245.821 203.236,245.200 201.213,245.200 199.764 C 245.200 198.647,245.002 198.305,244.174 197.990 C 242.755 197.450,242.484 197.495,242.291 198.300 C 242.132 198.966,242.109 198.966,241.819 198.299 C 241.605 197.808,241.783 197.380,242.414 196.869 C 242.909 196.469,243.240 195.921,243.151 195.653 C 243.040 195.320,242.712 195.423,242.115 195.978 C 241.512 196.541,241.155 196.651,240.960 196.335 C 240.805 196.084,240.975 195.661,241.339 195.395 C 242.222 194.750,242.173 194.400,241.200 194.400 C 240.760 194.400,240.400 194.220,240.400 194.000 C 240.400 193.780,240.850 193.600,241.400 193.600 C 242.625 193.600,242.657 193.316,241.539 192.347 C 240.501 191.447,240.400 191.433,240.400 192.186 M239.384 195.461 C 238.436 196.154,238.000 196.144,238.000 195.429 C 238.000 195.115,238.315 194.787,238.700 194.700 C 239.809 194.448,240.190 194.872,239.384 195.461 M148.936 205.300 C 149.089 205.678,149.252 205.653,149.600 205.200 C 149.948 204.747,150.111 204.722,150.264 205.100 C 150.375 205.375,150.722 205.600,151.033 205.600 C 151.345 205.600,151.600 205.960,151.600 206.400 C 151.600 206.844,151.333 207.200,151.000 207.200 C 150.667 207.200,150.400 206.844,150.400 206.400 C 150.400 205.960,150.220 205.600,150.000 205.600 C 149.780 205.600,149.600 205.780,149.600 206.000 C 149.600 206.220,149.240 206.400,148.800 206.400 C 148.267 206.400,148.000 206.133,148.000 205.600 C 148.000 204.715,148.618 204.516,148.936 205.300 M148.800 207.565 C 148.800 207.765,149.700 207.883,150.800 207.827 C 151.900 207.771,152.800 207.843,152.800 207.987 C 152.800 208.131,153.197 208.676,153.683 209.197 C 154.268 209.825,154.403 210.199,154.083 210.306 C 153.403 210.532,153.479 210.938,154.403 212.003 C 154.844 212.512,155.099 213.034,154.970 213.164 C 154.840 213.293,154.504 213.084,154.223 212.699 C 153.590 211.833,153.317 211.826,152.489 212.654 C 151.957 213.186,151.802 213.204,151.653 212.754 C 151.552 212.449,151.184 211.981,150.835 211.713 C 150.278 211.286,150.311 211.224,151.100 211.213 C 151.595 211.206,152.014 211.425,152.032 211.700 C 152.056 212.088,152.108 212.090,152.262 211.710 C 152.371 211.440,152.401 211.084,152.330 210.918 C 152.201 210.618,152.062 210.580,150.700 210.461 C 149.727 210.376,149.817 209.600,150.800 209.600 C 151.240 209.600,151.600 209.406,151.600 209.170 C 151.600 208.933,151.087 208.793,150.461 208.859 C 149.797 208.929,149.046 208.703,148.661 208.318 C 147.907 207.564,147.822 207.200,148.400 207.200 C 148.620 207.200,148.800 207.364,148.800 207.565 M166.800 207.600 C 166.800 207.820,166.530 208.000,166.200 208.000 C 165.870 208.000,165.600 207.820,165.600 207.600 C 165.600 207.380,165.870 207.200,166.200 207.200 C 166.530 207.200,166.800 207.380,166.800 207.600 M155.588 208.784 C 155.912 208.989,156.056 209.278,155.907 209.426 C 155.759 209.574,155.347 209.404,154.990 209.048 C 154.287 208.344,154.643 208.187,155.588 208.784 M153.829 213.371 C 154.625 214.168,154.549 214.324,153.400 214.258 C 152.850 214.226,152.400 214.170,152.400 214.133 C 152.396 213.015,153.098 212.641,153.829 213.371 M173.600 213.576 C 173.600 214.456,172.997 214.969,172.399 214.599 C 172.132 214.434,172.137 214.092,172.413 213.576 C 172.947 212.577,173.600 212.578,173.600 213.576 M163.700 218.944 C 162.858 219.361,162.432 220.400,163.102 220.400 C 163.269 220.400,163.460 221.415,163.528 222.655 C 163.683 225.486,165.600 227.655,165.600 225.000 C 165.600 224.450,165.458 224.000,165.285 224.000 C 165.112 224.000,164.941 223.271,164.905 222.379 C 164.870 221.488,164.722 220.385,164.578 219.929 C 164.403 219.379,164.462 219.191,164.753 219.371 C 165.027 219.540,165.102 219.410,164.953 219.021 C 164.822 218.679,164.689 218.422,164.657 218.449 C 164.626 218.476,164.195 218.699,163.700 218.944 M164.414 226.700 C 164.422 226.865,164.673 227.441,164.971 227.980 C 165.269 228.519,165.424 229.194,165.314 229.480 C 165.204 229.766,165.299 230.000,165.525 230.000 C 166.178 230.000,166.538 227.648,165.986 226.984 C 165.482 226.375,164.390 226.178,164.414 226.700 M166.800 232.200 C 166.800 232.750,166.980 233.200,167.200 233.200 C 167.420 233.200,167.600 233.560,167.600 234.000 C 167.600 234.832,168.229 235.023,169.115 234.461 C 169.500 234.217,169.375 233.943,168.617 233.374 C 167.955 232.876,167.683 232.370,167.830 231.907 C 167.979 231.436,167.844 231.200,167.427 231.200 C 167.025 231.200,166.800 231.559,166.800 232.200 M171.759 231.788 C 171.014 232.340,171.014 232.365,171.757 233.076 C 172.459 233.747,172.496 233.749,172.269 233.100 C 172.109 232.640,172.227 232.400,172.613 232.400 C 172.936 232.400,173.200 232.231,173.200 232.024 C 173.200 231.330,172.525 231.220,171.759 231.788 M181.200 232.176 C 181.200 232.493,181.369 232.857,181.576 232.985 C 181.782 233.113,181.924 232.853,181.891 232.409 C 181.822 231.495,181.200 231.286,181.200 232.176 M169.600 235.200 C 169.600 235.420,169.328 235.600,168.997 235.600 C 168.501 235.600,168.479 235.738,168.875 236.371 C 169.452 237.296,171.600 237.395,171.600 236.496 C 171.600 236.143,171.364 236.005,171.000 236.145 C 170.592 236.301,170.400 236.123,170.400 235.587 C 170.400 235.154,170.220 234.800,170.000 234.800 C 169.780 234.800,169.600 234.980,169.600 235.200 M176.400 247.704 C 176.400 247.981,176.760 248.432,177.200 248.707 C 178.131 249.288,178.368 248.528,177.520 247.680 C 176.897 247.057,176.400 247.068,176.400 247.704 M199.600 248.400 C 199.600 248.620,199.360 248.800,199.068 248.800 C 198.775 248.800,198.280 249.295,197.968 249.900 C 197.655 250.505,197.165 251.248,196.877 251.552 C 196.589 251.855,196.451 252.357,196.570 252.667 C 196.689 252.977,196.520 253.333,196.193 253.458 C 195.531 253.712,195.375 254.800,196.000 254.800 C 196.220 254.800,196.400 255.261,196.400 255.824 C 196.400 256.495,196.241 256.749,195.938 256.562 C 195.650 256.384,195.585 256.452,195.766 256.745 C 195.925 257.002,196.228 257.106,196.439 256.976 C 196.901 256.690,199.282 259.143,198.994 259.609 C 198.883 259.790,199.352 260.217,200.036 260.558 C 201.128 261.103,201.219 261.105,200.777 260.572 C 199.973 259.604,200.953 258.853,202.092 259.565 C 202.714 259.953,203.007 259.979,203.115 259.654 C 203.198 259.405,203.612 259.200,204.033 259.200 C 204.888 259.200,205.078 258.560,204.300 258.298 C 203.903 258.165,203.902 258.007,204.293 257.532 C 204.688 257.054,204.670 256.781,204.206 256.167 C 203.887 255.745,203.620 255.107,203.613 254.749 C 203.606 254.391,203.330 253.874,203.000 253.600 C 202.670 253.326,202.400 252.835,202.400 252.509 C 202.400 252.182,201.933 251.548,201.362 251.098 C 200.536 250.449,200.370 250.048,200.552 249.141 C 200.720 248.299,200.625 248.000,200.190 248.000 C 199.865 248.000,199.600 248.180,199.600 248.400 M189.200 249.800 C 189.200 250.130,189.380 250.400,189.600 250.400 C 189.820 250.400,190.000 250.130,190.000 249.800 C 190.000 249.470,189.820 249.200,189.600 249.200 C 189.380 249.200,189.200 249.470,189.200 249.800 M188.171 251.884 C 188.245 252.700,188.535 253.445,188.816 253.539 C 189.138 253.646,189.241 253.484,189.094 253.101 C 188.965 252.766,189.148 252.081,189.499 251.580 C 189.851 251.078,189.927 250.798,189.669 250.957 C 189.411 251.117,189.200 251.057,189.200 250.824 C 189.200 250.591,188.939 250.400,188.619 250.400 C 188.192 250.400,188.073 250.792,188.171 251.884 M177.200 251.002 C 177.200 251.698,178.470 252.490,178.899 252.061 C 179.145 251.815,179.269 251.543,179.173 251.456 C 178.812 251.129,177.200 250.757,177.200 251.002 M178.800 253.200 C 178.800 253.420,179.070 253.600,179.400 253.600 C 179.730 253.600,180.000 253.420,180.000 253.200 C 180.000 252.980,179.730 252.800,179.400 252.800 C 179.070 252.800,178.800 252.980,178.800 253.200 M180.289 256.296 C 180.715 257.422,181.604 258.156,182.028 257.732 C 182.265 257.495,181.960 257.025,181.214 256.473 C 180.205 255.728,180.063 255.701,180.289 256.296 M188.267 256.667 C 187.743 257.190,187.995 258.800,188.600 258.800 C 189.000 258.800,189.200 258.400,189.200 257.600 C 189.200 256.453,188.840 256.093,188.267 256.667 M184.175 259.832 C 184.523 260.180,184.688 260.658,184.542 260.894 C 184.385 261.149,184.464 261.207,184.738 261.038 C 185.012 260.869,185.200 261.007,185.200 261.376 C 185.200 261.719,185.376 262.000,185.591 262.000 C 186.043 262.000,185.238 259.960,184.608 259.506 C 183.850 258.960,183.538 259.195,184.175 259.832 M189.531 262.154 C 188.465 262.933,188.450 264.179,189.506 264.329 C 190.004 264.399,190.332 264.586,190.235 264.743 C 190.138 264.900,190.371 265.029,190.753 265.029 C 191.252 265.029,191.473 264.663,191.535 263.734 C 191.639 262.195,190.598 261.374,189.531 262.154 " stroke="none" fill="#69a855" fill-rule="evenodd"></path><path id="path1" d="M199.784 96.500 C 199.796 96.995,199.955 97.633,200.137 97.918 C 200.333 98.223,200.250 98.700,199.934 99.083 C 199.515 99.591,199.507 99.766,199.900 99.898 C 200.507 100.103,200.571 101.200,199.976 101.200 C 199.743 101.200,199.671 101.391,199.815 101.624 C 199.959 101.857,199.249 102.829,198.238 103.784 C 197.227 104.739,196.400 105.688,196.400 105.893 C 196.400 106.097,195.950 106.506,195.400 106.800 C 194.788 107.127,194.400 107.685,194.400 108.235 C 194.400 109.676,193.981 110.389,192.765 111.018 C 191.962 111.433,191.703 111.802,191.883 112.273 C 192.077 112.776,191.976 112.876,191.469 112.682 C 190.731 112.398,189.600 112.709,189.600 113.196 C 189.600 113.367,189.978 113.606,190.440 113.726 C 190.904 113.848,191.162 114.138,191.016 114.374 C 190.835 114.667,190.514 114.675,190.002 114.401 C 188.946 113.836,188.918 113.861,189.116 115.208 C 189.250 116.125,189.041 116.668,188.247 117.463 C 187.008 118.701,186.867 119.415,188.000 118.707 C 188.440 118.432,188.800 118.071,188.800 117.904 C 188.800 117.737,189.075 117.600,189.412 117.600 C 189.900 117.600,189.844 117.843,189.137 118.800 C 188.649 119.460,188.013 120.000,187.725 120.000 C 187.436 120.000,187.200 120.345,187.200 120.767 C 187.200 122.217,187.667 122.800,188.829 122.800 C 189.578 122.800,190.126 123.087,190.418 123.634 C 190.664 124.093,190.964 124.369,191.085 124.248 C 191.389 123.945,192.800 124.739,192.800 125.214 C 192.800 125.426,192.530 125.600,192.200 125.600 C 191.495 125.600,191.404 126.232,192.051 126.632 C 192.358 126.821,192.287 127.032,191.829 127.288 C 191.459 127.495,190.990 128.100,190.788 128.632 C 190.338 129.815,189.005 129.987,189.310 128.824 C 189.482 128.164,189.405 128.115,188.797 128.495 C 188.214 128.859,188.166 129.086,188.541 129.723 C 188.894 130.324,188.884 130.546,188.500 130.686 C 187.923 130.895,187.816 132.000,188.373 132.000 C 188.578 132.000,188.860 131.640,189.000 131.200 C 189.255 130.396,190.800 130.053,190.800 130.800 C 190.800 131.020,190.573 131.200,190.296 131.200 C 190.019 131.200,189.561 131.570,189.279 132.022 C 188.966 132.523,188.435 132.797,187.920 132.722 C 187.455 132.655,186.998 132.825,186.904 133.100 C 186.810 133.375,187.018 133.600,187.367 133.600 C 187.715 133.600,188.000 133.780,188.000 134.000 C 188.000 134.220,187.862 134.400,187.694 134.400 C 187.526 134.400,186.949 135.112,186.410 135.983 C 185.872 136.854,185.065 137.619,184.616 137.683 C 184.167 137.747,183.853 137.945,183.918 138.122 C 183.982 138.299,183.632 138.770,183.138 139.170 L 182.241 139.896 183.127 140.177 C 183.613 140.331,183.908 140.625,183.782 140.829 C 183.656 141.033,183.743 141.200,183.976 141.200 C 184.209 141.200,184.400 140.738,184.400 140.174 C 184.400 139.156,189.246 134.004,190.206 134.001 C 190.814 133.999,192.172 130.657,191.637 130.479 C 191.397 130.399,191.211 129.763,191.225 129.067 C 191.248 127.951,191.292 127.902,191.597 128.657 C 191.787 129.129,192.348 129.798,192.844 130.146 C 193.734 130.769,193.736 130.788,192.985 131.688 C 192.567 132.190,193.160 131.711,194.303 130.624 C 195.446 129.537,196.297 128.564,196.193 128.460 C 196.090 128.356,195.668 128.661,195.256 129.136 C 194.062 130.512,193.430 130.163,194.466 128.700 C 195.698 126.961,197.873 124.800,198.392 124.800 C 199.268 124.800,200.286 123.850,200.114 123.193 C 200.008 122.787,200.229 122.398,200.657 122.233 C 201.761 121.810,202.387 123.013,202.227 125.253 C 202.122 126.715,202.226 127.200,202.644 127.200 C 202.970 127.200,203.200 126.787,203.200 126.200 C 203.200 125.086,203.993 124.793,204.013 125.900 C 204.032 126.967,204.870 127.835,206.200 128.166 C 207.875 128.583,208.960 129.882,208.960 131.469 C 208.960 132.201,209.104 132.800,209.280 132.800 C 209.897 132.800,209.592 133.829,208.767 134.536 C 208.290 134.944,208.033 135.509,208.167 135.857 C 208.295 136.192,208.400 136.611,208.400 136.790 C 208.400 137.272,209.540 137.620,209.791 137.215 C 209.910 137.022,209.714 136.571,209.356 136.213 C 208.998 135.855,208.815 135.452,208.950 135.317 C 209.085 135.182,209.547 135.478,209.977 135.974 L 210.760 136.876 211.719 135.938 C 212.246 135.422,213.200 134.516,213.839 133.925 C 215.963 131.958,215.916 132.201,215.968 122.960 C 216.019 113.871,216.208 111.610,216.958 111.097 C 217.240 110.904,216.676 110.130,215.400 108.960 C 214.300 107.951,212.489 106.288,211.375 105.263 C 210.261 104.238,209.232 103.085,209.088 102.700 C 208.943 102.315,208.549 102.000,208.213 102.000 C 207.876 102.000,207.600 101.717,207.600 101.371 C 207.600 100.563,206.637 99.600,205.829 99.600 C 205.483 99.600,205.200 99.317,205.200 98.971 C 205.200 98.222,204.591 97.602,203.100 96.832 C 202.495 96.520,202.000 96.115,202.000 95.932 C 202.000 95.750,201.497 95.600,200.881 95.600 C 199.982 95.600,199.767 95.776,199.784 96.500 M253.692 103.600 C 253.220 104.040,252.556 104.400,252.217 104.400 C 251.794 104.400,251.590 104.809,251.568 105.700 C 251.551 106.415,251.446 106.776,251.336 106.502 C 251.207 106.184,250.578 106.583,249.599 107.602 C 248.754 108.481,247.734 109.203,247.331 109.206 C 246.713 109.211,246.693 109.272,247.200 109.600 C 247.720 109.936,247.711 109.989,247.137 109.994 C 246.681 109.998,246.538 110.240,246.677 110.773 C 246.844 111.411,246.722 111.505,245.977 111.310 C 245.333 111.141,245.161 111.213,245.374 111.559 C 245.564 111.865,244.655 113.030,242.901 114.729 C 241.376 116.207,240.054 117.628,239.964 117.889 C 239.703 118.642,235.968 122.400,235.481 122.400 C 235.176 122.400,235.185 122.545,235.510 122.870 C 235.868 123.228,235.870 123.475,235.516 123.901 C 235.158 124.333,235.180 124.541,235.614 124.809 C 235.924 125.000,236.048 125.285,235.891 125.442 C 235.734 125.600,235.275 125.430,234.871 125.064 C 233.950 124.230,233.600 124.224,233.600 125.040 C 233.600 125.392,232.970 126.310,232.200 127.080 C 231.430 127.850,230.800 128.732,230.800 129.040 C 230.800 129.348,230.665 129.606,230.500 129.613 C 229.250 129.666,228.680 130.802,229.532 131.541 C 230.009 131.955,230.394 132.543,230.387 132.847 C 230.378 133.230,230.201 133.170,229.808 132.651 C 229.295 131.975,229.181 131.962,228.620 132.523 C 227.796 133.347,227.838 133.600,228.800 133.600 C 229.240 133.600,229.600 133.851,229.600 134.157 C 229.600 134.464,229.870 134.818,230.200 134.945 C 231.271 135.356,230.928 136.447,229.815 136.168 C 228.717 135.892,228.662 136.674,229.655 138.474 C 230.091 139.267,230.186 139.299,230.312 138.700 C 230.620 137.229,231.775 138.145,231.949 140.000 C 232.021 140.770,232.282 141.525,232.529 141.678 C 232.817 141.857,232.695 142.064,232.189 142.256 C 231.220 142.623,230.230 143.563,230.513 143.847 C 230.628 143.962,231.095 143.822,231.551 143.538 C 233.340 142.421,233.497 143.834,231.772 145.526 C 230.907 146.375,229.519 147.901,228.686 148.918 L 227.173 150.768 228.363 150.353 C 229.018 150.125,229.757 149.693,230.006 149.393 C 230.255 149.093,230.715 148.946,231.029 149.067 C 231.382 149.202,231.600 149.033,231.600 148.625 C 231.600 147.790,233.361 146.000,234.182 146.000 C 234.533 146.000,234.800 145.655,234.800 145.200 C 234.800 144.739,235.067 144.400,235.429 144.400 C 236.262 144.400,237.311 143.321,237.084 142.696 C 236.762 141.807,238.004 140.774,238.850 141.227 C 239.263 141.448,239.597 141.847,239.594 142.114 C 239.590 142.419,239.444 142.377,239.200 142.000 C 238.967 141.639,238.810 141.590,238.806 141.876 C 238.803 142.138,238.980 142.464,239.200 142.600 C 239.447 142.752,239.600 146.137,239.600 151.424 C 239.600 158.780,239.685 160.000,240.200 160.000 C 240.706 160.000,240.811 158.981,240.867 153.500 C 240.970 143.535,240.991 143.035,241.330 142.500 C 241.766 141.812,242.400 141.871,242.400 142.600 C 242.400 142.930,242.220 143.200,242.000 143.200 C 241.780 143.200,241.600 143.470,241.600 143.800 C 241.600 144.523,242.067 144.573,242.720 143.920 C 243.093 143.547,243.200 143.636,243.200 144.320 C 243.200 144.804,243.020 145.200,242.800 145.200 C 242.111 145.200,242.364 146.185,243.184 146.697 C 243.615 146.967,244.245 147.081,244.584 146.951 C 244.976 146.800,245.200 146.941,245.200 147.338 C 245.200 148.128,247.743 149.361,248.801 149.084 C 249.359 148.938,249.604 149.075,249.614 149.537 C 249.624 150.006,249.796 149.907,250.200 149.200 L 250.772 148.200 250.786 149.281 C 250.794 149.876,251.017 150.838,251.281 151.419 L 251.763 152.475 252.239 150.938 L 252.716 149.400 252.821 151.200 C 252.879 152.190,252.895 153.342,252.857 153.761 C 252.819 154.179,253.061 154.938,253.394 155.447 C 253.727 155.956,254.000 156.950,254.000 157.656 C 254.000 158.920,254.012 158.928,254.756 158.170 C 255.476 157.435,255.514 156.383,255.571 135.245 C 255.610 120.444,255.772 112.827,256.056 112.295 C 256.291 111.857,256.329 111.386,256.141 111.249 C 255.688 110.919,255.610 108.000,256.054 108.000 C 256.244 108.000,256.400 107.449,256.400 106.776 C 256.400 106.063,256.233 105.656,256.000 105.800 C 255.780 105.936,255.600 105.857,255.600 105.624 C 255.600 105.391,255.780 105.200,256.000 105.200 C 256.576 105.200,256.494 104.104,255.900 103.865 C 255.515 103.710,255.521 103.656,255.924 103.632 C 256.702 103.585,256.068 102.800,255.252 102.800 C 254.866 102.800,254.164 103.160,253.692 103.600 M191.200 120.200 C 191.200 120.533,190.844 120.800,190.400 120.800 C 189.956 120.800,189.600 121.067,189.600 121.400 C 189.600 121.730,189.330 122.000,189.000 122.000 C 188.004 122.000,188.326 120.883,189.500 120.264 C 190.957 119.497,191.200 119.488,191.200 120.200 M221.500 156.676 C 220.668 156.893,220.559 157.600,221.357 157.600 C 221.664 157.600,222.018 157.330,222.145 157.000 C 222.271 156.670,222.336 156.421,222.287 156.446 C 222.239 156.472,221.885 156.575,221.500 156.676 M202.800 243.920 C 202.800 244.634,206.065 249.207,206.419 248.988 C 207.018 248.618,206.864 248.000,206.173 248.000 C 205.731 248.000,205.620 247.767,205.797 247.209 C 205.960 246.697,205.757 246.106,205.224 245.534 C 204.771 245.047,204.400 244.413,204.400 244.125 C 204.400 243.836,204.040 243.600,203.600 243.600 C 203.160 243.600,202.800 243.744,202.800 243.920 M207.277 250.830 C 207.356 251.067,207.591 251.260,207.800 251.260 C 208.009 251.260,208.245 251.067,208.323 250.830 C 208.402 250.594,208.167 250.400,207.800 250.400 C 207.433 250.400,207.198 250.594,207.277 250.830 " stroke="none" fill="#a9d061" fill-rule="evenodd"></path><path id="path2" d="M193.279 108.171 C 192.617 108.925,191.968 109.435,191.838 109.304 C 191.707 109.174,191.600 109.457,191.600 109.933 C 191.600 110.410,191.465 110.801,191.300 110.803 C 190.381 110.813,190.199 112.603,191.112 112.660 C 191.766 112.701,191.989 112.549,191.841 112.163 C 191.712 111.826,192.076 111.374,192.765 111.018 C 193.989 110.385,194.400 109.676,194.400 108.201 C 194.400 107.687,194.625 107.176,194.900 107.065 C 195.228 106.932,195.243 106.852,194.941 106.832 C 194.689 106.814,193.941 107.417,193.279 108.171 M245.722 110.601 C 245.346 111.009,245.409 111.161,246.022 111.322 C 246.508 111.449,246.800 111.323,246.800 110.986 C 246.800 110.197,246.270 110.008,245.722 110.601 M244.323 112.300 C 243.089 113.737,243.091 114.132,244.328 113.251 C 245.027 112.753,245.600 112.178,245.600 111.973 C 245.600 111.379,244.976 111.539,244.323 112.300 M186.400 116.395 C 184.000 118.991,180.302 121.974,181.019 120.736 C 181.189 120.441,180.816 120.650,180.188 121.200 C 177.956 123.156,177.169 124.000,177.578 124.000 C 178.114 124.000,176.828 125.535,175.839 126.077 C 175.207 126.423,175.122 126.380,175.335 125.826 C 175.485 125.433,175.428 125.259,175.195 125.403 C 174.978 125.537,174.800 125.907,174.800 126.224 C 174.800 126.541,174.609 126.800,174.375 126.800 C 174.141 126.800,174.006 127.141,174.075 127.558 C 174.201 128.323,169.851 133.318,169.427 132.894 C 169.313 132.779,169.095 133.026,168.944 133.443 C 168.793 133.859,167.798 135.060,166.735 136.112 C 165.671 137.163,164.800 138.186,164.800 138.385 C 164.800 138.583,164.440 138.860,164.000 139.000 C 163.560 139.140,163.200 139.485,163.200 139.769 C 163.200 140.381,161.584 142.197,160.772 142.497 C 160.317 142.665,160.363 142.833,160.995 143.318 C 161.895 144.009,161.141 145.311,159.547 145.817 C 159.136 145.947,158.800 146.216,158.800 146.414 C 158.800 146.613,159.056 146.677,159.369 146.556 C 160.016 146.308,160.800 147.524,160.800 148.774 C 160.800 149.228,160.609 149.600,160.376 149.600 C 160.143 149.600,160.064 149.780,160.200 150.000 C 160.336 150.220,160.257 150.400,160.024 150.400 C 159.791 150.400,159.600 150.749,159.600 151.176 C 159.600 151.603,159.420 152.064,159.200 152.200 C 158.980 152.336,158.800 152.719,158.800 153.052 C 158.800 153.590,158.867 153.590,159.400 153.057 C 159.730 152.727,160.000 152.084,160.000 151.629 C 160.000 151.173,160.180 150.800,160.400 150.800 C 160.809 150.800,160.892 151.115,160.903 152.710 C 160.907 153.415,161.077 153.566,161.656 153.382 C 162.131 153.231,162.492 153.374,162.645 153.772 C 162.777 154.118,163.226 154.400,163.643 154.400 C 164.483 154.400,164.653 154.996,163.939 155.438 C 163.686 155.594,163.261 155.425,162.995 155.061 C 162.729 154.697,162.135 154.400,161.674 154.400 C 160.869 154.400,160.875 154.439,161.844 155.408 C 162.398 155.962,163.020 156.311,163.226 156.184 C 163.847 155.800,163.645 157.064,163.000 157.600 C 162.322 158.163,162.193 159.200,162.800 159.200 C 163.020 159.200,163.200 159.023,163.200 158.808 C 163.200 158.592,163.633 158.307,164.162 158.174 C 164.691 158.041,165.816 157.054,166.662 155.980 C 167.508 154.906,168.486 153.928,168.836 153.807 C 169.186 153.686,169.711 153.140,170.004 152.593 C 170.296 152.047,170.697 151.600,170.895 151.600 C 171.506 151.600,178.645 144.658,180.356 142.399 C 180.882 141.705,181.776 140.961,182.343 140.746 C 183.098 140.459,183.232 140.267,182.846 140.028 C 182.435 139.774,182.492 139.581,183.105 139.151 C 183.538 138.848,183.910 138.420,183.930 138.200 C 183.951 137.980,184.298 137.747,184.700 137.683 C 185.103 137.619,185.872 136.854,186.410 135.983 C 186.949 135.112,187.526 134.400,187.694 134.400 C 187.862 134.400,188.000 134.220,188.000 134.000 C 188.000 133.780,187.715 133.600,187.367 133.600 C 187.018 133.600,186.810 133.375,186.904 133.100 C 186.998 132.825,187.455 132.655,187.920 132.722 C 188.435 132.797,188.966 132.523,189.279 132.022 C 189.561 131.570,190.019 131.200,190.296 131.200 C 190.573 131.200,190.800 131.020,190.800 130.800 C 190.800 130.053,189.255 130.396,189.000 131.200 C 188.860 131.640,188.578 132.000,188.373 132.000 C 187.816 132.000,187.923 130.895,188.500 130.686 C 188.884 130.546,188.894 130.324,188.541 129.723 C 188.166 129.086,188.214 128.859,188.797 128.495 C 189.405 128.115,189.482 128.164,189.310 128.824 C 189.005 129.987,190.338 129.815,190.788 128.632 C 190.990 128.100,191.459 127.495,191.829 127.288 C 192.287 127.032,192.358 126.821,192.051 126.632 C 191.404 126.232,191.495 125.600,192.200 125.600 C 192.530 125.600,192.800 125.426,192.800 125.214 C 192.800 124.739,191.389 123.945,191.085 124.248 C 190.964 124.369,190.664 124.093,190.418 123.634 C 190.126 123.087,189.578 122.800,188.829 122.800 C 187.667 122.800,187.200 122.217,187.200 120.767 C 187.200 120.345,187.436 120.000,187.725 120.000 C 188.013 120.000,188.649 119.460,189.137 118.800 C 189.844 117.843,189.900 117.600,189.412 117.600 C 189.075 117.600,188.800 117.737,188.800 117.904 C 188.800 118.071,188.440 118.432,188.000 118.707 C 186.867 119.415,187.008 118.701,188.247 117.463 C 189.046 116.663,189.251 116.127,189.113 115.191 C 188.967 114.197,189.053 114.012,189.567 114.212 C 190.609 114.619,190.718 114.617,190.772 114.200 C 190.969 112.704,188.813 113.786,186.400 116.395 M239.003 118.300 C 238.570 118.905,237.546 120.059,236.728 120.865 C 235.527 122.047,235.363 122.377,235.877 122.574 C 236.228 122.709,236.609 122.725,236.724 122.609 C 236.839 122.494,236.701 122.400,236.417 122.400 C 236.134 122.400,236.823 121.455,237.949 120.300 C 239.076 119.145,239.998 117.975,239.999 117.700 C 240.001 116.993,239.890 117.059,239.003 118.300 M189.500 120.264 C 188.326 120.883,188.004 122.000,189.000 122.000 C 189.330 122.000,189.600 121.730,189.600 121.400 C 189.600 121.067,189.956 120.800,190.400 120.800 C 190.844 120.800,191.200 120.533,191.200 120.200 C 191.200 119.488,190.957 119.497,189.500 120.264 M200.442 122.366 C 200.135 122.560,199.990 122.996,200.119 123.334 C 200.249 123.672,200.140 124.027,199.878 124.124 C 199.526 124.254,199.547 124.445,199.959 124.850 C 200.407 125.291,200.457 125.293,200.211 124.862 C 199.994 124.479,200.121 124.364,200.653 124.466 C 201.576 124.642,201.877 127.348,201.967 136.305 C 202.001 139.663,202.112 142.678,202.214 143.005 C 202.316 143.332,202.499 143.909,202.621 144.286 C 202.798 144.839,203.258 144.549,204.992 142.786 C 206.175 141.584,207.337 140.420,207.573 140.200 C 208.730 139.122,210.400 137.072,210.400 136.729 C 210.400 136.188,209.211 135.056,208.933 135.333 C 208.808 135.459,208.998 135.855,209.356 136.213 C 209.714 136.571,209.910 137.022,209.791 137.215 C 209.540 137.620,208.400 137.272,208.400 136.790 C 208.400 136.611,208.295 136.192,208.167 135.857 C 208.033 135.509,208.290 134.944,208.767 134.536 C 209.592 133.829,209.897 132.800,209.280 132.800 C 209.104 132.800,208.960 132.201,208.960 131.469 C 208.960 129.882,207.875 128.583,206.200 128.166 C 204.870 127.835,204.032 126.967,204.013 125.900 C 203.993 124.793,203.200 125.086,203.200 126.200 C 203.200 126.785,202.970 127.200,202.646 127.200 C 202.236 127.200,202.126 126.716,202.220 125.323 C 202.399 122.656,201.733 121.548,200.442 122.366 M232.276 125.400 C 230.788 126.830,229.393 128.000,229.176 128.000 C 228.958 128.000,228.626 128.405,228.437 128.900 C 228.119 129.732,225.649 132.718,222.066 136.600 C 221.254 137.480,220.052 138.463,219.395 138.784 C 218.213 139.361,216.003 141.521,216.001 142.100 C 216.000 142.265,215.791 142.400,215.536 142.400 C 214.940 142.400,212.800 144.785,212.800 145.449 C 212.800 145.727,212.417 146.223,211.949 146.551 C 211.481 146.878,209.765 148.374,208.136 149.873 C 206.507 151.373,204.595 152.795,203.887 153.034 C 202.315 153.563,201.853 155.132,203.168 155.476 C 204.222 155.751,204.249 156.642,203.211 156.913 C 202.559 157.084,202.426 157.455,202.444 159.060 C 202.456 160.127,202.376 161.498,202.267 162.106 C 202.042 163.363,202.838 164.400,204.029 164.400 C 204.453 164.400,204.800 164.142,204.800 163.827 C 204.800 163.147,205.404 162.953,208.600 162.602 C 210.394 162.405,211.373 162.044,212.477 161.169 C 213.500 160.359,214.402 160.000,215.416 160.000 C 216.526 160.000,217.150 159.710,218.000 158.800 C 218.617 158.140,219.499 157.600,219.960 157.600 C 220.422 157.600,220.800 157.420,220.800 157.200 C 220.800 156.980,221.025 156.800,221.300 156.800 C 221.981 156.799,225.600 153.238,225.600 152.568 C 225.600 152.272,226.422 151.169,227.426 150.115 C 228.430 149.062,230.166 147.245,231.283 146.078 C 233.392 143.875,233.560 142.283,231.551 143.538 C 231.095 143.822,230.628 143.962,230.513 143.847 C 230.230 143.563,231.220 142.623,232.189 142.256 C 232.695 142.064,232.817 141.857,232.529 141.678 C 232.282 141.525,232.021 140.770,231.949 140.000 C 231.775 138.145,230.620 137.229,230.312 138.700 C 230.186 139.299,230.091 139.267,229.655 138.474 C 228.662 136.674,228.717 135.892,229.815 136.168 C 230.928 136.447,231.271 135.356,230.200 134.945 C 229.870 134.818,229.600 134.464,229.600 134.157 C 229.600 133.851,229.240 133.600,228.800 133.600 C 227.838 133.600,227.796 133.347,228.620 132.523 C 229.181 131.962,229.295 131.975,229.808 132.651 C 230.201 133.170,230.378 133.230,230.387 132.847 C 230.394 132.543,230.009 131.955,229.532 131.541 C 228.680 130.802,229.250 129.666,230.500 129.613 C 230.665 129.606,230.800 129.348,230.800 129.040 C 230.800 128.732,231.430 127.850,232.200 127.080 C 232.970 126.310,233.600 125.392,233.600 125.040 C 233.600 124.224,233.950 124.230,234.871 125.064 C 235.275 125.430,235.734 125.600,235.891 125.442 C 236.048 125.285,235.924 125.000,235.614 124.809 C 235.177 124.538,235.156 124.335,235.522 123.894 C 235.957 123.370,235.801 122.800,235.223 122.800 C 235.089 122.800,233.763 123.970,232.276 125.400 M196.200 126.573 C 194.419 128.454,194.272 128.759,195.272 128.497 C 195.776 128.365,196.641 127.817,197.194 127.278 C 197.747 126.739,197.989 126.414,197.730 126.554 C 197.472 126.695,197.202 126.566,197.130 126.269 C 197.036 125.876,196.781 125.959,196.200 126.573 M191.232 129.100 C 191.214 129.815,191.388 130.400,191.618 130.400 C 191.847 130.400,191.982 130.696,191.918 131.059 C 191.853 131.421,192.054 131.805,192.364 131.913 C 192.753 132.048,192.850 131.906,192.676 131.455 C 192.534 131.084,192.623 130.800,192.882 130.800 C 193.134 130.800,192.971 130.395,192.521 129.900 C 192.070 129.405,191.603 128.730,191.482 128.400 C 191.362 128.070,191.249 128.385,191.232 129.100 M241.263 142.700 C 241.061 143.088,240.875 151.430,240.847 161.400 C 240.819 171.300,240.683 182.102,240.545 185.404 L 240.294 191.408 241.347 192.199 C 242.666 193.190,242.682 193.600,241.400 193.600 C 240.850 193.600,240.400 193.780,240.400 194.000 C 240.400 194.220,240.760 194.400,241.200 194.400 C 242.173 194.400,242.222 194.750,241.339 195.395 C 240.975 195.661,240.805 196.084,240.960 196.335 C 241.155 196.651,241.512 196.541,242.115 195.978 C 242.712 195.423,243.040 195.320,243.151 195.653 C 243.240 195.921,242.909 196.469,242.414 196.869 C 241.783 197.380,241.605 197.808,241.819 198.299 C 242.109 198.966,242.132 198.966,242.291 198.300 C 242.484 197.495,242.755 197.450,244.174 197.990 C 245.002 198.305,245.200 198.647,245.200 199.764 C 245.200 201.213,245.821 203.236,246.374 203.592 C 246.907 203.934,246.363 206.400,245.755 206.400 C 245.450 206.400,245.200 206.580,245.200 206.800 C 245.200 207.020,245.470 207.200,245.800 207.200 C 246.130 207.200,246.400 207.020,246.400 206.800 C 246.400 206.580,246.760 206.400,247.200 206.400 C 247.640 206.400,248.000 206.220,248.000 206.000 C 248.000 205.780,247.820 205.600,247.600 205.600 C 247.380 205.600,247.200 205.319,247.200 204.976 C 247.200 204.350,248.958 204.356,249.975 204.985 C 250.209 205.129,250.400 204.967,250.400 204.624 C 250.400 204.281,250.220 204.000,250.000 204.000 C 249.780 204.000,249.600 203.801,249.600 203.557 C 249.600 203.313,249.891 203.226,250.248 203.363 C 250.747 203.554,250.848 203.426,250.686 202.805 C 250.570 202.362,250.617 202.087,250.791 202.194 C 251.167 202.427,251.770 201.008,252.571 198.000 C 252.893 196.790,253.359 195.109,253.607 194.263 C 254.455 191.374,254.354 156.826,253.494 155.561 C 253.106 154.989,252.819 154.179,252.857 153.761 C 252.895 153.342,252.879 152.190,252.821 151.200 L 252.716 149.400 252.239 150.938 L 251.763 152.475 251.281 151.419 C 251.017 150.838,250.794 149.876,250.786 149.281 L 250.772 148.200 250.200 149.200 C 249.796 149.907,249.624 150.006,249.614 149.537 C 249.604 149.075,249.359 148.938,248.801 149.084 C 247.743 149.361,245.200 148.128,245.200 147.338 C 245.200 146.941,244.976 146.800,244.584 146.951 C 244.245 147.081,243.615 146.967,243.184 146.697 C 242.364 146.185,242.111 145.200,242.800 145.200 C 243.020 145.200,243.200 144.804,243.200 144.320 C 243.200 143.636,243.093 143.547,242.720 143.920 C 242.067 144.573,241.600 144.523,241.600 143.800 C 241.600 143.470,241.780 143.200,242.000 143.200 C 242.220 143.200,242.400 142.930,242.400 142.600 C 242.400 141.782,241.710 141.843,241.263 142.700 M158.267 149.067 C 157.806 149.527,157.975 150.000,158.600 150.000 C 158.930 150.000,159.200 149.730,159.200 149.400 C 159.200 148.775,158.727 148.606,158.267 149.067 M208.167 161.743 C 207.934 162.348,207.200 162.683,207.200 162.183 C 207.200 161.898,208.168 160.851,208.309 160.983 C 208.370 161.039,208.305 161.381,208.167 161.743 M216.000 169.250 C 216.000 169.676,215.685 170.141,215.300 170.283 C 214.915 170.425,214.472 170.733,214.317 170.967 C 214.121 171.261,213.879 171.239,213.537 170.897 C 212.303 169.663,211.208 171.171,212.355 172.524 C 212.890 173.156,212.894 173.297,212.384 173.624 C 211.889 173.943,211.885 174.055,212.357 174.359 C 212.720 174.593,212.917 175.493,212.925 176.959 C 212.935 178.832,213.053 179.200,213.645 179.200 C 214.620 179.200,214.944 179.859,214.123 180.174 C 213.716 180.330,213.314 180.189,213.105 179.816 C 212.915 179.477,212.409 179.200,211.980 179.200 C 211.132 179.200,211.124 179.158,211.127 174.700 C 211.129 172.009,210.872 171.586,209.691 172.335 C 209.340 172.558,209.264 173.146,209.448 174.229 C 209.594 175.093,209.717 176.340,209.722 177.000 C 209.727 177.660,209.919 178.324,210.149 178.476 C 210.419 178.653,210.309 179.038,209.839 179.557 C 209.438 180.000,209.064 180.943,209.008 181.653 C 208.940 182.526,208.645 183.040,208.094 183.243 C 206.294 183.910,206.871 184.337,209.898 184.579 C 211.604 184.715,213.810 184.890,214.800 184.968 C 217.869 185.209,219.029 184.032,218.342 181.374 C 217.836 179.413,217.628 176.400,218.001 176.400 C 218.485 176.400,218.460 170.968,217.971 169.895 C 217.376 168.591,216.000 168.140,216.000 169.250 M247.600 207.600 C 247.600 207.820,247.960 208.000,248.400 208.000 C 248.840 208.000,249.200 207.820,249.200 207.600 C 249.200 207.380,248.840 207.200,248.400 207.200 C 247.960 207.200,247.600 207.380,247.600 207.600 M247.600 209.799 C 247.306 210.349,247.186 210.919,247.333 211.066 C 247.480 211.213,247.600 211.093,247.600 210.798 C 247.600 210.504,247.898 209.934,248.262 209.531 C 248.626 209.129,248.747 208.800,248.530 208.800 C 248.313 208.800,247.894 209.250,247.600 209.799 M200.679 245.105 C 200.557 245.713,200.085 246.641,199.629 247.167 C 198.728 248.206,198.572 248.800,199.200 248.800 C 199.420 248.800,199.600 248.620,199.600 248.400 C 199.600 248.180,199.865 248.000,200.190 248.000 C 200.625 248.000,200.720 248.299,200.552 249.141 C 200.370 250.048,200.536 250.449,201.362 251.098 C 201.933 251.548,202.400 252.182,202.400 252.509 C 202.400 252.835,202.670 253.326,203.000 253.600 C 203.330 253.874,203.600 254.352,203.600 254.663 C 203.600 254.974,203.880 255.655,204.222 256.177 C 204.635 256.808,204.702 257.213,204.422 257.387 C 203.792 257.776,203.913 258.400,204.618 258.400 C 205.758 258.400,207.023 256.634,207.539 254.321 L 208.048 252.043 205.924 248.994 C 204.756 247.318,203.565 245.508,203.278 244.973 C 202.528 243.573,200.969 243.653,200.679 245.105 " stroke="none" fill="#94c55c" fill-rule="evenodd"></path><path id="path3" d="M209.290 139.819 C 207.481 140.580,202.800 145.359,202.800 146.445 C 202.800 146.592,203.597 147.086,204.571 147.544 C 205.788 148.116,206.382 148.661,206.471 149.287 C 206.652 150.562,212.658 144.831,213.399 142.675 C 213.675 141.871,213.743 141.311,213.550 141.431 C 213.358 141.550,213.200 141.444,213.200 141.195 C 213.200 139.847,211.035 139.085,209.290 139.819 M177.100 182.557 C 176.369 183.112,176.184 183.600,176.704 183.600 C 176.871 183.600,177.232 183.240,177.507 182.800 C 178.089 181.868,178.044 181.840,177.100 182.557 M158.800 193.800 C 158.800 194.130,158.980 194.400,159.200 194.400 C 159.420 194.400,159.600 194.130,159.600 193.800 C 159.600 193.470,159.420 193.200,159.200 193.200 C 158.980 193.200,158.800 193.470,158.800 193.800 M159.500 201.757 C 158.769 202.312,158.584 202.800,159.104 202.800 C 159.271 202.800,159.632 202.440,159.907 202.000 C 160.489 201.068,160.444 201.040,159.500 201.757 M148.000 205.600 C 148.000 206.133,148.267 206.400,148.800 206.400 C 149.240 206.400,149.600 206.220,149.600 206.000 C 149.600 205.780,149.780 205.600,150.000 205.600 C 150.220 205.600,150.400 205.960,150.400 206.400 C 150.400 206.844,150.667 207.200,151.000 207.200 C 151.333 207.200,151.600 206.844,151.600 206.400 C 151.600 205.960,151.345 205.600,151.033 205.600 C 150.722 205.600,150.375 205.375,150.264 205.100 C 150.111 204.722,149.948 204.747,149.600 205.200 C 149.252 205.653,149.089 205.678,148.936 205.300 C 148.618 204.516,148.000 204.715,148.000 205.600 M148.000 207.429 C 148.000 208.117,149.457 208.964,150.461 208.859 C 151.087 208.793,151.600 208.933,151.600 209.170 C 151.600 209.406,151.240 209.600,150.800 209.600 C 149.817 209.600,149.727 210.376,150.700 210.461 C 152.062 210.580,152.201 210.618,152.330 210.918 C 152.401 211.084,152.371 211.440,152.262 211.710 C 152.108 212.090,152.056 212.088,152.032 211.700 C 152.014 211.425,151.595 211.206,151.100 211.213 C 150.311 211.224,150.278 211.286,150.835 211.713 C 151.184 211.981,151.552 212.449,151.653 212.754 C 151.802 213.204,151.957 213.186,152.489 212.654 C 153.317 211.826,153.590 211.833,154.223 212.699 C 154.504 213.084,154.840 213.293,154.970 213.164 C 155.099 213.034,154.844 212.512,154.403 212.003 C 153.479 210.938,153.403 210.532,154.083 210.306 C 154.403 210.199,154.268 209.825,153.683 209.197 C 153.197 208.676,152.800 208.131,152.800 207.987 C 152.800 207.843,151.900 207.771,150.800 207.827 C 149.700 207.883,148.800 207.765,148.800 207.565 C 148.800 207.364,148.620 207.200,148.400 207.200 C 148.180 207.200,148.000 207.303,148.000 207.429 M165.600 207.600 C 165.600 207.820,165.870 208.000,166.200 208.000 C 166.530 208.000,166.800 207.820,166.800 207.600 C 166.800 207.380,166.530 207.200,166.200 207.200 C 165.870 207.200,165.600 207.380,165.600 207.600 M154.990 209.048 C 155.347 209.404,155.759 209.574,155.907 209.426 C 156.056 209.278,155.912 208.989,155.588 208.784 C 154.643 208.187,154.287 208.344,154.990 209.048 M157.553 208.700 C 157.527 208.865,157.527 209.135,157.553 209.300 C 157.579 209.465,157.330 209.600,157.000 209.600 C 156.670 209.600,156.400 209.789,156.400 210.020 C 156.400 210.688,157.726 209.787,157.835 209.045 C 157.887 208.690,157.855 208.400,157.765 208.400 C 157.674 208.400,157.579 208.535,157.553 208.700 M166.242 208.916 C 165.733 209.291,165.378 210.255,165.159 211.860 C 164.979 213.173,164.565 214.761,164.239 215.389 C 163.875 216.091,163.741 217.008,163.891 217.766 C 164.112 218.882,164.071 218.948,163.467 218.451 C 162.893 217.978,162.800 217.992,162.800 218.551 C 162.800 219.287,163.627 219.413,164.267 218.773 C 164.569 218.471,164.766 218.535,164.942 218.994 C 165.100 219.406,165.031 219.543,164.753 219.371 C 164.462 219.191,164.403 219.379,164.578 219.929 C 164.722 220.385,164.870 221.488,164.905 222.379 C 164.941 223.271,165.112 224.000,165.285 224.000 C 165.458 224.000,165.600 224.450,165.600 225.000 C 165.600 225.683,165.378 226.002,164.900 226.006 C 164.385 226.010,164.465 226.148,165.200 226.525 C 166.119 226.997,166.189 227.223,166.064 229.336 L 165.928 231.633 167.030 231.357 C 167.973 231.120,168.092 231.182,167.860 231.788 C 167.673 232.276,167.913 232.776,168.630 233.392 C 169.497 234.137,169.565 234.328,169.036 234.531 C 168.230 234.840,168.205 235.600,169.000 235.600 C 169.330 235.600,169.600 235.420,169.600 235.200 C 169.600 234.980,169.780 234.800,170.000 234.800 C 170.220 234.800,170.400 235.154,170.400 235.587 C 170.400 236.616,171.320 236.271,172.009 234.983 C 172.463 234.135,172.431 233.898,171.771 233.168 C 170.888 232.193,171.760 231.108,173.137 231.468 C 173.613 231.592,174.007 231.290,174.365 230.525 C 175.348 228.428,175.525 228.200,176.063 228.329 C 176.472 228.427,176.489 228.344,176.135 227.984 C 175.485 227.322,173.534 228.733,173.761 229.700 C 173.858 230.113,173.694 230.400,173.363 230.400 C 173.053 230.400,172.800 230.040,172.800 229.600 C 172.800 229.160,172.935 228.799,173.100 228.797 C 173.614 228.792,174.461 226.620,174.008 226.469 C 173.422 226.274,173.504 225.600,174.114 225.600 C 174.902 225.600,176.000 223.440,176.000 221.888 C 176.000 219.416,175.576 218.034,174.897 218.295 C 174.405 218.484,174.325 218.302,174.500 217.391 C 174.620 216.764,174.627 216.014,174.516 215.725 C 174.177 214.842,173.600 215.141,173.600 216.200 C 173.600 218.238,172.059 216.532,171.884 214.300 C 171.854 213.915,171.596 213.600,171.311 213.600 C 171.026 213.600,170.228 213.060,169.537 212.400 C 168.846 211.740,168.049 211.200,167.765 211.200 C 167.463 211.200,167.197 210.609,167.124 209.779 C 167.009 208.462,166.945 208.399,166.242 208.916 M152.643 213.433 C 152.509 213.781,152.400 214.096,152.400 214.133 C 152.400 214.170,152.850 214.226,153.400 214.258 C 154.549 214.324,154.625 214.168,153.829 213.371 C 153.103 212.646,152.942 212.654,152.643 213.433 M172.413 213.576 C 172.137 214.092,172.132 214.434,172.399 214.599 C 172.997 214.969,173.600 214.456,173.600 213.576 C 173.600 212.578,172.947 212.577,172.413 213.576 M151.853 215.081 C 151.174 215.760,151.638 216.477,152.600 216.236 C 153.177 216.091,153.600 216.157,153.600 216.392 C 153.600 216.617,153.780 216.800,154.000 216.800 C 154.220 216.800,154.400 216.545,154.400 216.233 C 154.400 215.922,154.625 215.563,154.900 215.437 C 155.175 215.311,155.002 215.306,154.515 215.426 C 154.028 215.546,153.287 215.461,152.868 215.236 C 152.448 215.012,151.992 214.942,151.853 215.081 M177.684 220.268 C 177.852 225.284,178.800 225.425,178.800 220.433 C 178.800 217.430,178.693 216.800,178.184 216.800 C 177.669 216.800,177.588 217.363,177.684 220.268 M219.800 217.600 C 219.664 217.820,219.203 218.000,218.776 218.000 C 218.349 218.000,218.000 218.180,218.000 218.400 C 218.000 218.620,218.360 218.800,218.800 218.800 C 219.240 218.800,219.600 218.620,219.600 218.400 C 219.600 218.180,219.971 218.000,220.424 218.000 C 220.877 218.000,221.136 217.820,221.000 217.600 C 220.864 217.380,220.594 217.200,220.400 217.200 C 220.206 217.200,219.936 217.380,219.800 217.600 M210.973 220.780 C 210.768 220.982,208.855 221.192,206.722 221.247 C 203.187 221.339,201.337 221.920,204.581 221.920 C 205.342 221.920,206.832 222.039,207.892 222.185 C 209.693 222.433,212.255 221.322,211.537 220.604 C 211.433 220.499,211.179 220.578,210.973 220.780 M197.179 222.421 C 196.861 222.623,196.193 222.791,195.695 222.794 C 194.821 222.800,194.446 222.935,192.505 223.938 C 192.013 224.192,191.248 224.400,190.805 224.400 C 190.362 224.400,190.000 224.580,190.000 224.800 C 190.000 225.020,189.807 225.200,189.572 225.200 C 188.010 225.200,181.900 230.808,181.900 232.241 C 181.900 232.919,181.763 233.101,181.449 232.841 C 180.868 232.358,179.600 233.252,179.600 234.144 C 179.600 234.505,179.420 234.800,179.200 234.800 C 178.980 234.800,178.800 235.160,178.800 235.600 C 178.800 236.040,178.620 236.400,178.400 236.400 C 178.180 236.400,178.000 236.749,178.000 237.176 C 178.000 237.603,177.815 238.067,177.589 238.207 C 177.364 238.346,177.205 238.672,177.237 238.930 C 177.366 239.979,177.180 240.835,176.865 240.640 C 176.281 240.279,176.293 245.285,176.877 245.662 C 177.298 245.934,177.283 246.075,176.800 246.389 C 176.290 246.719,176.335 246.872,177.100 247.411 C 177.595 247.760,178.000 248.327,178.000 248.672 C 178.000 249.187,177.892 249.209,177.390 248.792 C 177.055 248.514,176.650 248.426,176.490 248.598 C 176.331 248.769,176.425 248.990,176.700 249.088 C 176.975 249.186,177.200 249.608,177.200 250.026 C 177.200 250.502,177.573 250.878,178.200 251.036 C 179.318 251.316,179.511 251.906,178.600 252.255 C 177.597 252.640,177.931 253.233,179.000 252.964 C 179.616 252.810,180.000 252.883,180.000 253.157 C 180.000 253.400,179.730 253.600,179.400 253.600 C 179.070 253.600,178.800 253.870,178.800 254.200 C 178.800 254.530,178.980 254.800,179.200 254.800 C 179.420 254.800,179.600 255.160,179.600 255.600 C 179.600 256.040,179.791 256.400,180.024 256.400 C 180.257 256.400,180.321 256.196,180.167 255.946 C 180.012 255.696,180.437 255.899,181.111 256.397 C 181.784 256.895,182.265 257.505,182.179 257.751 C 181.962 258.373,183.059 259.735,183.537 259.439 C 184.160 259.054,185.201 259.624,185.187 260.343 C 185.176 260.903,185.088 260.886,184.591 260.229 C 184.271 259.805,183.885 259.582,183.733 259.733 C 183.404 260.063,184.864 261.207,185.284 260.948 C 185.445 260.849,185.691 261.225,185.832 261.784 C 185.992 262.424,186.367 262.800,186.843 262.800 C 187.260 262.800,187.600 262.980,187.600 263.200 C 187.600 263.420,187.870 263.600,188.200 263.600 C 188.530 263.600,188.800 263.349,188.800 263.043 C 188.800 262.492,189.889 261.803,190.531 261.947 C 190.714 261.988,190.797 261.701,190.717 261.310 C 190.632 260.898,190.283 260.649,189.885 260.718 C 189.508 260.782,189.200 260.647,189.200 260.418 C 189.200 260.188,189.380 260.000,189.600 260.000 C 189.820 260.000,190.000 259.550,190.000 259.000 C 190.000 258.450,189.820 258.000,189.600 258.000 C 189.380 258.000,189.200 258.180,189.200 258.400 C 189.200 258.620,188.930 258.800,188.600 258.800 C 187.753 258.800,187.832 256.938,188.700 256.432 C 189.088 256.206,189.177 256.019,188.900 256.012 C 188.625 256.005,188.400 255.809,188.400 255.576 C 188.400 255.343,188.580 255.264,188.800 255.400 C 189.026 255.539,189.200 255.215,189.200 254.657 C 189.200 254.112,188.999 253.600,188.752 253.517 C 188.159 253.320,187.899 250.400,188.475 250.400 C 188.715 250.400,189.127 250.694,189.389 251.053 C 189.831 251.657,189.867 251.657,189.867 251.053 C 189.867 250.694,189.717 250.400,189.533 250.400 C 188.951 250.400,189.173 249.596,190.000 248.708 C 190.873 247.770,191.025 247.200,190.400 247.200 C 190.180 247.200,190.000 247.380,190.000 247.600 C 190.000 247.820,189.730 248.000,189.400 248.000 C 189.070 248.000,188.800 247.820,188.800 247.600 C 188.800 247.380,189.078 247.200,189.418 247.200 C 189.772 247.200,189.985 246.919,189.918 246.541 C 189.853 246.179,190.025 245.804,190.300 245.708 C 190.575 245.612,190.800 245.818,190.800 246.167 C 190.800 246.515,190.969 246.800,191.175 246.800 C 191.381 246.800,191.524 246.448,191.491 246.017 C 191.459 245.587,191.359 245.308,191.269 245.398 C 190.653 246.014,189.956 244.311,190.554 243.651 C 190.909 243.258,191.200 242.721,191.200 242.456 C 191.200 242.191,191.475 241.869,191.812 241.740 C 192.198 241.592,192.336 241.228,192.185 240.753 C 191.915 239.902,192.400 239.760,193.120 240.480 C 193.384 240.744,193.615 240.879,193.633 240.780 C 193.847 239.628,193.807 238.728,193.534 238.559 C 193.350 238.446,193.203 237.958,193.206 237.476 C 193.211 236.814,193.298 236.736,193.566 237.158 C 193.773 237.485,194.203 237.608,194.605 237.454 C 195.167 237.238,195.200 237.082,194.788 236.586 C 194.512 236.253,194.402 235.865,194.543 235.724 C 194.684 235.582,194.800 235.677,194.800 235.933 C 194.800 236.190,195.048 236.400,195.350 236.400 C 195.653 236.400,195.904 235.995,195.908 235.500 C 195.912 235.005,195.956 234.420,196.005 234.200 C 196.330 232.749,195.938 231.671,195.000 231.436 C 193.860 231.150,193.644 230.401,194.700 230.398 C 195.170 230.396,195.023 230.199,194.254 229.798 C 192.933 229.108,192.665 229.058,192.974 229.558 C 193.096 229.755,192.936 230.016,192.618 230.138 C 192.227 230.288,192.115 230.166,192.271 229.760 C 192.399 229.427,192.168 228.910,191.750 228.594 C 191.031 228.049,191.037 228.025,191.900 228.013 C 192.395 228.006,192.800 227.820,192.800 227.600 C 192.800 227.380,193.235 227.200,193.767 227.200 C 195.865 227.200,196.650 226.238,195.400 225.200 C 194.464 224.423,194.688 224.000,196.037 224.000 C 196.936 224.000,197.332 223.782,197.483 223.204 C 197.597 222.767,197.876 222.524,198.103 222.664 C 198.330 222.804,199.029 222.904,199.658 222.886 C 200.398 222.865,200.800 223.055,200.800 223.427 C 200.800 223.742,200.980 224.000,201.200 224.000 C 201.420 224.000,201.600 223.730,201.600 223.400 C 201.600 223.070,201.870 222.800,202.200 222.800 C 202.530 222.800,202.800 222.648,202.800 222.461 C 202.800 221.999,197.901 221.964,197.179 222.421 M176.488 225.769 C 175.843 226.455,175.714 226.823,176.049 227.030 C 176.311 227.192,176.737 227.028,177.005 226.661 C 177.271 226.297,177.798 226.000,178.177 226.000 C 178.557 226.000,178.792 225.775,178.700 225.500 C 178.414 224.642,177.438 224.760,176.488 225.769 " stroke="none" fill="#3f8441" fill-rule="evenodd"></path><path id="path4" d="M202.000 95.904 C 202.000 96.071,202.360 96.432,202.800 96.707 C 203.730 97.288,203.854 96.997,203.029 96.171 C 202.398 95.541,202.000 95.437,202.000 95.904 M196.858 104.583 C 195.070 106.523,194.865 106.903,195.800 106.545 C 196.130 106.418,196.400 106.136,196.400 105.918 C 196.400 105.699,196.965 104.993,197.655 104.349 C 198.345 103.704,198.821 103.088,198.713 102.980 C 198.605 102.872,197.771 103.593,196.858 104.583 M253.000 103.600 C 252.602 104.040,252.401 104.400,252.555 104.400 C 252.708 104.400,253.220 104.040,253.692 103.600 C 254.164 103.160,254.365 102.800,254.137 102.800 C 253.910 102.800,253.398 103.160,253.000 103.600 M249.396 107.204 C 248.766 107.862,248.366 108.400,248.507 108.400 C 248.872 108.400,250.880 106.347,250.695 106.162 C 250.611 106.077,250.026 106.546,249.396 107.204 M190.699 110.577 C 190.315 110.858,190.000 111.383,190.000 111.744 C 190.000 112.105,189.722 112.400,189.382 112.400 C 188.657 112.400,186.800 114.151,186.800 114.835 C 186.800 115.331,184.820 117.199,184.293 117.200 C 183.852 117.200,181.200 119.994,181.200 120.458 C 181.200 120.672,180.992 120.719,180.738 120.562 C 180.450 120.383,180.385 120.452,180.566 120.745 C 181.121 121.643,190.800 112.751,190.800 111.343 C 190.800 111.081,191.025 110.786,191.300 110.688 C 191.575 110.590,191.710 110.410,191.599 110.287 C 191.489 110.165,191.084 110.296,190.699 110.577 M216.259 113.300 C 216.120 114.455,216.005 119.053,216.003 123.517 C 216.001 129.426,215.864 131.794,215.500 132.221 C 214.530 133.361,212.010 135.816,210.414 137.176 C 208.637 138.691,208.381 139.235,209.596 138.917 C 210.033 138.803,210.292 138.550,210.172 138.355 C 209.969 138.026,210.555 137.828,211.330 137.963 C 211.511 137.994,211.545 137.835,211.406 137.610 C 211.267 137.384,211.340 137.200,211.569 137.200 C 211.798 137.200,213.168 136.018,214.613 134.573 L 217.240 131.945 217.173 121.573 C 217.108 111.624,216.798 108.814,216.259 113.300 M238.705 117.768 C 236.122 120.426,234.007 122.746,234.005 122.924 C 234.002 123.102,233.792 123.119,233.538 122.962 C 233.252 122.785,233.185 122.852,233.362 123.138 C 233.519 123.392,233.455 123.600,233.220 123.600 C 232.147 123.600,224.784 130.908,224.034 132.717 C 223.742 133.423,223.281 134.000,223.011 134.000 C 222.288 134.000,219.933 136.368,220.210 136.816 C 220.438 137.185,219.836 137.383,219.000 137.214 C 218.780 137.170,218.732 137.266,218.894 137.427 C 219.055 137.589,218.876 137.949,218.494 138.228 C 218.113 138.507,217.936 138.870,218.101 139.035 C 218.572 139.505,220.448 138.353,222.066 136.600 C 225.649 132.718,228.119 129.732,228.437 128.900 C 228.626 128.405,228.973 128.000,229.208 128.000 C 229.663 128.000,237.109 120.605,239.800 117.482 C 240.680 116.460,241.725 115.513,242.123 115.378 C 242.731 115.171,243.858 113.251,243.511 113.013 C 243.450 112.971,241.287 115.111,238.705 117.768 M175.789 125.212 C 174.823 126.280,175.258 126.605,176.408 125.674 C 176.951 125.234,177.161 124.823,176.918 124.673 C 176.692 124.533,176.184 124.776,175.789 125.212 M198.310 124.970 C 197.814 125.217,197.345 125.742,197.269 126.135 C 197.122 126.903,198.056 126.558,199.700 125.238 C 200.363 124.705,200.400 125.274,200.400 136.138 C 200.400 142.834,200.553 147.600,200.767 147.600 C 201.697 147.600,202.787 144.951,202.405 143.618 C 202.198 142.895,202.000 139.580,201.967 136.251 C 201.847 124.454,201.499 123.380,198.310 124.970 M173.117 128.919 C 172.612 129.425,171.883 129.959,171.499 130.107 C 170.802 130.374,170.514 131.200,171.119 131.200 C 171.294 131.200,172.141 130.480,173.000 129.600 C 173.859 128.720,174.444 128.000,174.299 128.000 C 174.155 128.000,173.623 128.414,173.117 128.919 M194.392 129.010 C 193.701 129.843,194.211 130.247,194.981 129.476 C 195.321 129.136,195.600 128.754,195.600 128.629 C 195.600 128.184,194.891 128.408,194.392 129.010 M168.920 132.356 C 168.511 133.011,168.551 133.086,169.211 132.913 C 170.379 132.608,171.096 131.600,170.145 131.600 C 169.731 131.600,169.180 131.940,168.920 132.356 M191.150 132.768 C 190.850 133.446,190.424 134.001,190.202 134.001 C 189.487 134.003,184.400 139.125,184.400 139.843 C 184.400 140.525,185.188 140.014,186.982 138.170 C 192.109 132.902,192.541 132.381,192.132 131.972 C 191.817 131.657,191.544 131.878,191.150 132.768 M182.159 140.791 C 181.697 140.977,180.887 141.700,180.359 142.396 C 179.015 144.170,173.698 149.398,170.743 151.851 C 170.444 152.099,169.905 152.662,169.545 153.102 C 169.185 153.543,168.723 153.970,168.518 154.052 C 168.054 154.236,163.200 160.223,163.200 160.611 C 163.200 160.766,163.560 160.799,164.001 160.684 C 164.441 160.569,164.700 160.638,164.577 160.837 C 164.454 161.037,164.543 161.200,164.776 161.200 C 165.009 161.200,165.200 160.924,165.200 160.587 C 165.200 160.249,165.834 159.339,166.609 158.564 C 167.385 157.789,167.897 156.957,167.748 156.715 C 167.588 156.457,167.660 156.390,167.923 156.552 C 168.444 156.874,170.664 154.517,170.467 153.851 C 170.393 153.603,170.469 153.535,170.634 153.701 C 170.964 154.030,172.400 152.899,172.400 152.309 C 172.400 151.816,173.241 151.016,174.100 150.690 C 174.485 150.544,174.800 150.160,174.800 149.835 C 174.800 149.511,175.136 149.010,175.546 148.723 C 175.957 148.435,176.317 148.065,176.346 147.900 C 176.376 147.735,176.462 147.645,176.538 147.700 C 176.615 147.755,177.702 146.733,178.956 145.428 C 180.209 144.124,181.612 142.864,182.074 142.628 C 184.219 141.534,184.293 139.928,182.159 140.791 M237.444 141.551 C 236.588 142.497,237.121 142.939,238.183 142.163 C 238.709 141.778,238.826 141.466,238.549 141.189 C 238.272 140.912,237.918 141.028,237.444 141.551 M158.133 142.631 C 158.000 142.978,158.185 143.557,158.545 143.917 C 159.152 144.523,159.200 144.521,159.200 143.886 C 159.200 143.509,159.470 143.200,159.800 143.200 C 160.130 143.200,160.400 142.930,160.400 142.600 C 160.400 141.785,158.447 141.812,158.133 142.631 M156.543 145.004 C 156.418 145.329,156.194 145.520,156.044 145.427 C 155.894 145.334,155.771 145.606,155.771 146.029 C 155.771 147.094,156.580 146.995,157.339 145.837 C 157.895 144.988,157.899 144.847,157.370 144.644 C 157.037 144.516,156.669 144.676,156.543 145.004 M210.486 147.157 C 209.339 148.212,208.400 149.230,208.400 149.418 C 208.400 149.607,208.985 149.189,209.700 148.489 C 210.415 147.789,211.450 146.868,212.000 146.443 C 212.550 146.017,212.904 145.572,212.786 145.454 C 212.669 145.336,211.634 146.102,210.486 147.157 M232.460 147.051 C 231.943 147.602,231.628 148.161,231.760 148.293 C 231.892 148.425,232.045 148.458,232.100 148.367 C 232.155 148.275,232.636 147.705,233.170 147.100 C 234.380 145.727,233.743 145.683,232.460 147.051 M200.643 149.212 C 200.499 149.549,200.431 153.239,200.491 157.412 L 200.600 165.000 202.354 165.126 C 203.319 165.195,204.300 165.060,204.534 164.826 C 204.768 164.592,205.903 164.400,207.056 164.400 C 208.209 164.400,209.264 164.220,209.400 164.000 C 209.536 163.780,209.991 163.600,210.411 163.600 C 210.832 163.600,211.817 163.240,212.600 162.800 C 213.383 162.360,214.272 162.000,214.574 162.000 C 215.106 162.000,218.394 160.428,218.800 159.979 C 218.910 159.858,219.708 159.429,220.573 159.026 C 222.125 158.303,230.800 149.868,230.800 149.081 C 230.800 148.858,230.485 148.961,230.099 149.310 C 228.924 150.374,226.953 151.004,227.590 150.113 C 227.871 149.721,227.625 149.908,227.044 150.529 C 226.464 151.150,226.089 151.820,226.212 152.019 C 226.334 152.218,225.530 153.224,224.424 154.255 C 223.318 155.287,222.308 156.461,222.179 156.865 C 222.011 157.396,221.553 157.600,220.534 157.600 C 219.480 157.600,218.836 157.905,218.000 158.800 C 217.150 159.710,216.526 160.000,215.416 160.000 C 214.402 160.000,213.500 160.359,212.477 161.169 C 211.373 162.044,210.394 162.405,208.600 162.602 C 205.404 162.953,204.800 163.147,204.800 163.827 C 204.800 164.620,203.482 164.545,202.555 163.700 C 201.677 162.899,201.415 160.800,202.193 160.800 C 202.560 160.800,202.645 160.293,202.496 158.977 C 202.314 157.363,202.389 157.128,203.145 156.930 C 204.223 156.648,204.257 155.760,203.200 155.484 C 202.689 155.351,202.398 154.936,202.395 154.337 C 202.385 152.769,200.935 148.526,200.643 149.212 M254.632 158.500 C 254.531 158.995,254.339 166.992,254.205 176.272 C 254.068 185.686,253.782 193.730,253.557 194.472 C 253.335 195.202,252.814 196.970,252.400 198.400 C 251.386 201.897,250.232 205.034,249.722 205.675 C 249.492 205.964,249.186 206.857,249.042 207.660 C 248.897 208.463,248.514 209.340,248.189 209.609 C 247.865 209.878,247.600 210.338,247.600 210.631 C 247.600 210.924,247.195 211.577,246.700 212.082 C 244.993 213.823,244.546 215.123,245.382 215.912 C 245.784 216.290,245.987 216.375,245.833 216.100 C 245.672 215.813,245.776 215.597,246.076 215.593 C 246.364 215.589,247.024 214.689,247.542 213.593 C 248.061 212.497,248.646 211.600,248.842 211.600 C 249.039 211.600,249.200 211.240,249.200 210.800 C 249.200 210.360,249.380 210.000,249.600 210.000 C 249.820 210.000,250.000 209.640,250.000 209.200 C 250.000 208.760,250.180 208.400,250.400 208.400 C 250.620 208.400,250.800 207.942,250.800 207.383 C 250.800 206.824,251.160 205.980,251.600 205.508 C 252.040 205.036,252.400 204.244,252.400 203.748 C 252.400 203.253,252.580 202.736,252.800 202.600 C 253.020 202.464,253.200 201.924,253.200 201.400 C 253.200 200.876,253.380 200.336,253.600 200.200 C 253.820 200.064,254.000 199.254,254.000 198.400 C 254.000 197.546,254.161 196.748,254.358 196.626 C 255.321 196.031,256.166 157.600,255.216 157.600 C 254.995 157.600,254.733 158.005,254.632 158.500 M239.431 172.300 C 239.193 187.515,238.900 192.800,238.293 192.800 C 237.982 192.800,237.969 192.929,238.253 193.213 C 238.783 193.743,239.861 193.332,240.205 192.469 C 240.882 190.773,240.945 160.000,240.271 160.000 C 239.691 160.000,239.602 161.299,239.431 172.300 M163.390 162.416 C 163.248 162.645,162.788 162.723,162.366 162.589 C 161.877 162.434,161.598 162.537,161.595 162.873 C 161.592 163.163,161.481 163.805,161.348 164.300 C 161.153 165.026,161.271 165.200,161.953 165.200 C 162.448 165.200,162.800 164.945,162.800 164.586 C 162.800 164.248,163.091 163.528,163.446 162.986 C 163.801 162.444,163.992 162.000,163.870 162.000 C 163.747 162.000,163.531 162.187,163.390 162.416 M160.200 166.399 C 160.065 166.619,160.234 167.199,160.577 167.688 C 161.196 168.573,161.200 168.570,161.200 167.289 C 161.200 166.036,160.700 165.591,160.200 166.399 M218.596 167.207 C 218.458 167.430,218.177 167.509,217.972 167.383 C 217.768 167.256,217.600 167.363,217.600 167.619 C 217.600 167.876,217.330 167.982,217.000 167.855 C 216.635 167.715,216.400 167.855,216.400 168.213 C 216.400 168.536,216.641 168.800,216.936 168.800 C 217.901 168.800,218.389 170.748,218.415 174.707 C 218.443 178.733,218.582 180.390,219.016 181.852 C 219.205 182.490,218.914 183.060,217.861 184.112 C 217.087 184.887,216.561 185.628,216.693 185.760 C 217.092 186.159,218.800 186.029,218.800 185.600 C 218.800 185.380,219.081 185.200,219.424 185.200 C 219.793 185.200,219.931 185.388,219.762 185.662 C 219.590 185.940,219.652 186.015,219.916 185.852 C 220.830 185.287,220.554 166.800,219.631 166.800 C 219.200 166.800,218.734 166.983,218.596 167.207 M159.412 168.380 C 159.283 168.589,159.543 168.955,159.989 169.194 C 160.865 169.663,160.928 169.600,160.557 168.633 C 160.285 167.922,159.766 167.808,159.412 168.380 M214.000 168.887 C 214.000 169.059,213.406 169.200,212.680 169.200 C 211.954 169.200,211.189 169.371,210.980 169.580 C 210.771 169.789,209.751 170.033,208.714 170.122 C 207.677 170.211,206.417 170.563,205.914 170.903 L 205.000 171.523 206.061 171.937 C 208.051 172.713,212.000 172.105,212.000 171.024 C 212.000 170.677,212.550 170.487,213.598 170.472 C 215.529 170.446,216.000 170.193,216.000 169.181 C 216.000 168.602,215.750 168.430,215.000 168.492 C 214.450 168.537,214.000 168.715,214.000 168.887 M158.656 170.278 C 158.205 170.728,158.381 171.200,159.000 171.200 C 159.330 171.200,159.600 171.031,159.600 170.824 C 159.600 170.319,158.975 169.958,158.656 170.278 M201.280 171.280 C 200.698 171.862,200.648 172.800,201.200 172.800 C 201.420 172.800,201.600 172.530,201.600 172.200 C 201.600 171.861,201.958 171.600,202.424 171.600 C 202.877 171.600,203.136 171.420,203.000 171.200 C 202.665 170.659,201.864 170.696,201.280 171.280 M197.482 172.153 C 197.405 172.384,196.635 172.535,195.771 172.488 C 194.516 172.420,194.341 172.487,194.903 172.823 C 195.290 173.054,195.765 173.146,195.958 173.026 C 196.151 172.907,196.536 173.082,196.814 173.416 C 197.325 174.032,198.800 173.042,198.800 172.083 C 198.800 171.587,197.651 171.647,197.482 172.153 M205.291 184.800 C 204.791 185.009,204.282 185.442,204.160 185.760 C 203.994 186.192,203.444 186.295,202.003 186.164 C 200.660 186.042,199.893 186.164,199.493 186.564 C 199.177 186.881,197.688 187.780,196.186 188.564 C 194.684 189.347,193.352 190.144,193.227 190.334 C 193.102 190.525,192.235 191.160,191.300 191.745 C 190.365 192.331,189.600 192.977,189.600 193.181 C 189.600 193.995,190.483 194.027,191.168 193.237 C 191.567 192.777,192.188 192.400,192.547 192.400 C 192.906 192.400,193.200 192.141,193.200 191.824 C 193.200 191.507,193.408 191.119,193.662 190.962 C 193.943 190.788,194.015 190.852,193.846 191.125 C 193.694 191.372,194.584 191.039,195.825 190.387 C 197.066 189.734,198.305 189.200,198.579 189.200 C 198.852 189.200,199.375 188.869,199.741 188.465 C 200.158 188.004,201.029 187.706,202.083 187.665 C 203.006 187.629,203.940 187.420,204.160 187.200 C 204.380 186.980,205.388 186.800,206.400 186.800 C 207.412 186.800,208.411 186.629,208.620 186.420 C 208.829 186.212,210.575 185.996,212.500 185.940 C 215.972 185.841,217.015 185.456,214.900 185.055 C 212.543 184.608,206.153 184.439,205.291 184.800 M238.700 194.715 C 238.315 194.794,238.000 195.115,238.000 195.429 C 238.000 196.079,238.354 196.144,239.149 195.640 C 239.885 195.174,239.575 194.535,238.700 194.715 M243.900 216.757 C 243.126 217.542,242.959 218.800,243.629 218.800 C 244.334 218.800,245.200 217.714,245.200 216.829 C 245.200 215.830,244.835 215.810,243.900 216.757 M241.500 220.032 C 241.115 220.256,240.800 220.656,240.800 220.920 C 240.799 221.377,239.584 223.019,238.172 224.472 C 237.813 224.841,237.267 225.047,236.960 224.929 C 236.559 224.775,236.404 225.039,236.413 225.857 C 236.424 226.888,236.477 226.932,236.952 226.306 C 237.242 225.925,237.625 225.745,237.804 225.906 C 237.982 226.068,237.999 225.975,237.841 225.700 C 237.680 225.421,237.759 225.200,238.020 225.200 C 238.704 225.200,242.800 220.923,242.800 220.209 C 242.800 219.505,242.480 219.461,241.500 220.032 M226.285 232.009 C 225.908 232.449,225.600 232.972,225.600 233.171 C 225.600 233.370,225.375 233.624,225.100 233.735 C 224.825 233.846,224.780 233.951,225.000 233.968 C 225.753 234.026,227.763 232.003,227.357 231.597 C 227.107 231.347,226.726 231.494,226.285 232.009 M222.400 234.400 C 222.400 234.620,222.659 234.800,222.976 234.800 C 223.293 234.800,223.664 234.620,223.800 234.400 C 223.936 234.180,223.677 234.000,223.224 234.000 C 222.771 234.000,222.400 234.180,222.400 234.400 M200.768 243.100 C 200.455 243.705,199.885 244.549,199.500 244.975 C 199.115 245.402,198.800 245.947,198.800 246.187 C 198.800 246.427,198.440 246.883,198.000 247.200 C 197.560 247.517,197.200 248.097,197.200 248.488 C 197.200 248.880,197.041 249.200,196.847 249.200 C 196.395 249.200,195.916 250.629,195.803 252.314 C 195.752 253.072,195.889 253.570,196.126 253.491 C 196.352 253.416,196.567 252.943,196.604 252.440 C 196.641 251.938,196.836 251.408,197.036 251.263 C 197.236 251.118,197.840 250.190,198.378 249.200 C 198.915 248.210,199.599 247.153,199.897 246.852 C 200.195 246.550,200.539 245.803,200.662 245.191 C 200.854 244.232,201.128 244.042,202.642 243.815 C 204.568 243.526,204.673 243.416,203.829 242.571 C 202.874 241.616,201.402 241.871,200.768 243.100 M204.893 245.200 C 205.168 245.640,205.531 246.000,205.700 246.000 C 205.869 246.000,205.782 245.640,205.507 245.200 C 205.232 244.760,204.869 244.400,204.700 244.400 C 204.531 244.400,204.618 244.760,204.893 245.200 M205.867 247.067 C 205.413 247.520,205.572 248.000,206.175 248.000 C 206.554 248.000,206.725 248.375,206.675 249.100 C 206.616 249.963,206.793 250.227,207.500 250.327 C 208.106 250.414,208.400 250.250,208.400 249.828 C 208.400 249.483,208.264 249.200,208.098 249.200 C 207.931 249.200,207.556 248.660,207.264 248.000 C 206.734 246.803,206.372 246.561,205.867 247.067 M208.283 251.100 C 208.193 251.265,207.880 252.564,207.587 253.986 C 207.041 256.635,205.201 259.200,203.847 259.200 C 203.528 259.200,203.198 259.405,203.115 259.654 C 203.007 259.979,202.714 259.953,202.092 259.565 C 200.945 258.849,199.975 259.606,200.786 260.583 C 201.352 261.266,203.200 261.432,203.200 260.800 C 203.200 260.580,203.830 260.400,204.600 260.400 C 205.370 260.400,206.000 260.220,206.000 260.000 C 206.000 259.780,206.294 259.600,206.653 259.600 C 208.269 259.600,209.199 257.591,209.200 254.100 C 209.200 251.237,208.844 250.073,208.283 251.100 M195.677 255.972 C 195.726 256.617,195.909 257.056,196.083 256.949 C 196.408 256.748,196.555 257.368,196.417 258.354 C 196.368 258.705,196.570 258.820,196.965 258.669 C 197.334 258.527,197.551 258.624,197.495 258.905 C 197.443 259.167,197.805 259.443,198.300 259.518 C 199.511 259.703,199.441 259.468,197.800 257.827 C 197.030 257.057,196.400 256.061,196.400 255.613 C 196.400 255.166,196.217 254.800,195.994 254.800 C 195.770 254.800,195.627 255.328,195.677 255.972 " stroke="none" fill="#92ba78" fill-rule="evenodd"></path></g></svg>